<svg width="100" height="100" viewBox="0 0 100 100" fill="none" xmlns="http://www.w3.org/2000/svg"><g opacity=".5" fill="#F1E8E2"><path d="M14.468 85.567c6.383.607 12.948.243 19.392.243h20.547c13.678 0 27.356 0 41.034-.122.73 0 .73-1.091 0-1.091-13.435.06-26.93.06-40.365 0-13.374-.06-26.99-.91-40.365 0-.73.06-.73 1.091 0 1.152 12.949.849 26.2 0 39.21 0 13.8-.06 27.66-.06 41.459 0 .73 0 .73-1.092 0-1.092-13.252-.06-26.565-.12-39.818-.12H35.015c-6.808 0-13.8-.365-20.608.242-.425.06-.425.788.061.788Z"/><path d="M17.204 85.264c14.468.606 24.012 15.706 38.905 14.675 5.472-.363 10.882-3.82 12.706-9.035 2.31-6.55.182-13.22-4.256-18.375-4.012-4.609-11.064-8.126-16.595-4.003-3.283 2.487-6.444 8.794-2.007 11.765 2.797 1.88 7.417 1.577 9.18-1.637 1.884-3.396-2.31-6.732-5.41-5.276-1.277.606-1.399 2.122-1.095 3.335.304 1.152 1.946.667 1.763-.485l1.277-1.455c1.033.06 1.641.606 1.884 1.516.365.849 0 1.576-.608 2.183-1.033 1.091-2.918 1.213-4.316 1.152-3.04-.182-3.83-3.032-3.222-5.58.851-3.516 4.316-6.245 7.782-6.548 5.592-.486 10.76 4.912 13.373 9.217 3.04 5.276 3.161 11.765-.121 16.798-6.08 9.4-19.088 4.973-26.687.546-7.295-4.245-13.739-9.096-22.493-9.096-.243 0-.243.303-.06.303Z"/><path d="M49.909 77.138c.669-1.213 2.006.485 1.58 1.455-.243.485-.73.728-1.215.91-.487.182-1.156.182-1.581.485-.122.06-.122.182-.122.303.183 1.092 1.946.97 2.675.667 1.094-.485 1.824-1.516 1.763-2.729-.06-1.091-.85-1.94-1.763-2.304-.912-.364-1.58.303-1.641 1.152-.06.121.243.182.304.06Z"/><path d="M49.787 77.198c.304-.303.79-.606 1.155-.667.304-.06.608 0 .912.182.182.122.182.122.365.303-.06-.12.06.182.121.182-.06-.182.061.243 0 .061 0 .182 0 .303-.121.424-.183.364-.486.607-.426 1.031.061.425.304.728.73.728 1.033.121 1.641-1.395 1.58-2.244-.06-.849-.608-1.576-1.276-2-.669-.425-1.58-.547-2.31-.304-.426.182-.79.424-1.034.788-.304.364-.243.789-.243 1.213.06.364.365.546.547.303Z"/><path d="M50.76 75.258c.669-.06 1.398.242 1.763.788.304.425.425 1.334.972 1.274.183 0 .365-.061.426-.243.486-1.03 0-1.94-.912-2.547-.79-.606-1.884-.424-2.492.243-.122.182 0 .545.243.485Z"/><path d="M51.185 74.651c.67.061 1.277.486 1.703.97.182.243.364.486.486.728.121.243.425.486.608.667.182.243.547 0 .547-.242 0-.425 0-.85-.243-1.213-.243-.364-.547-.667-.851-.97-.73-.546-1.46-.667-2.371-.546-.304.121-.182.606.121.606ZM62.067 97.756c-3.283.97-7.295.546-10.213-1.273-2.25-1.395-2.979-4.245-1.216-6.368 1.095-1.273 3.04-1.698 4.62-1.394 1.946.727 2.067 1.94.426 3.638-.304 0-1.398-.06-1.52-.485-.182-.728-1.216-1.031-1.702-.425-.973 1.213-.122 2.365 1.094 2.911 1.824.85 3.648.06 4.56-1.637.79-1.516.121-3.76-1.277-4.67-1.945-1.273-4.134-.97-6.08.122-3.707 2.062-2.795 6.731.123 8.914 3.039 2.244 7.963 2.365 11.306.91.183 0 .061-.243-.121-.243Z"/><path d="M52.158 88.72c1.094-.12 4.195.304 3.77 2.002-.183.667-1.034 1.03-1.581 1.152-.608.121-1.095-.303-1.703-.364a.53.53 0 0 0-.486.364c-.304 1.395 1.459 1.759 2.432 1.577 1.215-.182 2.249-1.092 2.614-2.244.364-1.152-.426-2.304-1.52-2.79-1.155-.485-2.432-.364-3.648-.121-.121.121-.06.424.122.424ZM69.422 85.203c-.06-4.063-2.796-9.339-6.93-10.491-1.884-.546-4.133.242-4.559 2.304-.425 1.941 1.58 4.306 3.648 4.063 1.458-.181 1.458-2.122 0-2.304-.608-.06-1.034-.485-1.277-.97-.608-1.031.06-1.82 1.094-2.183 1.641-.546 3.1.849 4.134 1.94 1.824 2.001 3.222 4.973 3.647 7.641 0 .182.243.121.243 0ZM24.316 86.052c4.316 2.85 10.82 6.004 15.623 2.608 3.1-2.183 3.161-7.46 1.642-10.491-1.703-3.578-7.113-4.488-9.301-.91-2.493 4.063 4.68 6.125 7.173 3.638.912-.91-.243-2.486-1.398-1.758-1.034.667-2.067.91-3.222.303-.426-2.183.304-3.275 2.188-3.335 1.094-.06 2.067.546 2.857 1.213 2.007 1.758 2.128 5.033 1.46 7.398-2.068 7.944-12.28 2.123-16.779.667-.364-.182-.608.425-.243.667Z"/><path d="M36.474 75.5c-1.823-.06-2.979 1.577-2.37 3.275.607 1.698 2.553 2.85 4.255 2.183a1.735 1.735 0 0 0 1.033-1.03c.122-.365 0-.85-.425-.91-.73-.122-1.46.363-2.128.06-.547-.242-1.033-.728-1.216-1.334-.182-.788.486-1.455 1.034-1.88.121-.121 0-.364-.183-.364ZM47.66 68.95c-1.095.668-3.891 1.578-4.499-.181-.122-.364.182-.85.426-1.092.364-.364.304-.12.425.182.669 1.395 2.736.182 2.067-1.213-1.337-2.91-5.654-.97-5.046 1.941.304 1.273 1.642 2.426 2.918 2.547 1.642.182 2.858-.728 3.83-1.94.122-.183 0-.364-.121-.243ZM49.24 93.572c.365-3.214-2.857-6.428-6.079-4.973-1.276.546-1.641 2.183-1.216 3.396.547 1.516 2.067 2.244 3.587 2.062.486-.06.851-.667.851-1.152 0-.728-.547-1.092-1.155-1.152-1.094-.122-1.52-.97-.547-1.577.912-.546 2.067 0 2.735.606.79.728 1.338 1.82 1.52 2.85-.06.243.243.182.304-.06ZM64.195 96.968c2.735-1.637 4.194-4.488 3.647-7.641-.426-2.365-2.736-4.67-5.228-3.578-2.067.91-3.89 3.639-2.553 5.822 1.337 2.243 5.41 2.365 6.079-.546.304-1.213-1.52-2.123-2.128-.91-.85 1.759-2.006.243-1.945-.849.06-1.576 1.337-2.91 2.979-2.668 2.127.303 2.31 3.7 2.066 5.215-.303 1.88-1.64 3.578-2.978 4.852-.243.182-.061.364.06.303ZM56.717 67.98c.547.425.79 1.092.851 1.76 0 .606-.425 1.152-1.094 1.03 0 0-.304-.121-.243-.06.122.06-.122-.122 0 0-.06-.061-.122-.182-.182-.243-.183-.303.06.182-.061-.121-.122-.303 0 .242 0-.06 0-.243-.06.12-.06.181-.062.182-.122.121 0 .06.181-.181.242-.363.364-.606.121-.364-.061-.849-.304-1.091-.669-.667-1.58-.364-2.067.303-.365.485-.365 1.092-.243 1.637.243 1.213 1.276 2.062 2.553 1.94 1.398-.12 2.432-1.212 2.492-2.546.122-1.213-.79-2.123-1.823-2.547-.183-.06-.365.242-.183.364ZM42.25 84.536c.182-.788 1.033-1.395 1.762-1.637.122-.06.243-.06.365-.06h.243c-.121-.061-.121-.183-.121-.243 0 .242 0 .363-.061.667-.183 1.516 2.431 1.576 2.37 0-.06-1.698-1.52-2.426-2.917-1.759-.608.242-1.034.788-1.46 1.334-.425.546-.486 1.092-.486 1.759.061.06.304.06.304-.06ZM53.739 84.84c.73 1.03 2.188.727 3.16.242 1.156-.606 2.068-1.88 1.642-3.153-.425-1.153-1.763-1.82-2.918-1.698-1.702.12-2.492 1.94-1.398 3.274.912 1.031 2.614-.303 1.884-1.455-.182-.243-.121-.364-.06.06 0 .182-.243.486-.122.364-.182.182.122-.06.122-.06.121-.061.304-.182.425-.243.426-.182.79.06.669.546-.182 1.213-2.25 1.758-3.283 1.758-.121 0-.243.183-.121.364ZM69.058 84.172c-1.155.243-2.675 0-3.709-.606-.486-.303-.79-.85-.486-1.334.122-.182.487-.243.365-.364.851 1.273 2.918.06 2.067-1.213-1.702-2.426-5.35-.121-4.073 2.486 1.033 2.002 4.255 2.608 5.896 1.213.183-.06.061-.182-.06-.182Z"/><path d="M57.75 99.212c6.81.909 10.882-3.578 14.104-8.915 3.344-5.518 5.35-12.917 3.161-19.284-.73-2.001-2.249-3.82-4.498-3.881-2.006-.061-2.128 2.122-1.946 3.517.183 1.334 1.399 2.608 2.189 3.638 1.459 1.941 1.763 4.064 1.824 6.49.06 4.487-2.31 7.944-3.466 12.128-.06.182.183.303.305.182 2.796-3.093 4.072-8.248 4.376-12.31.122-1.82-.06-4.185-.972-5.822-.547-.97-1.155-1.88-1.763-2.79-.669-.788-.73-1.759-.304-2.85 1.216.303 1.763 1.576 2.31 2.547 2.979 5.7 1.277 11.643-1.58 17.04-1.277 2.426-2.98 4.852-4.985 6.792-2.371 2.305-5.654 2.79-8.815 3.215-.122 0-.122.303.06.303Z"/><path d="M73.252 86.052c2.25-3.093 2.857-7.398 2.553-11.158-.182-2.365-1.52-7.702-4.741-7.46-.365 0-.608.304-.547.668.304 1.091 1.216 1.759 1.823 2.729 1.095 1.637 1.399 3.7 1.52 5.579.243 3.214-.304 6.368-1.094 9.52 0 .183.365.304.486.122Z"/><path d="M70.152 68.405c.73 1.94 2.067 3.517 2.736 5.519.79 2.243.486 4.67 1.155 6.913.06.303.547.364.668.06 2.189-3.638.183-11.522-4.073-12.977-.304-.06-.608.243-.486.485ZM61.58 98.423c5.29.607 9.18-5.397 10.578-9.763.06-.243-.243-.425-.425-.243-1.642 1.638-2.371 3.942-3.77 5.761-1.64 2.123-4.012 3.093-6.443 4.003-.122 0-.122.182.06.242Z"/><path d="M65.714 97.332c3.77-1.516 6.323-4.67 8.45-8.066 2.857-4.548 4.073-10.188 7.356-14.433 1.702-2.183 2.067.667 1.824 2.244-.244 1.456-1.034 2.79-1.763 4.063-1.216 2.183-2.554 4.367-4.013 6.428-1.763 2.487-4.133 4.549-6.808 6.125-1.52.85-4.377 1.274-5.289 2.85-.121.182 0 .425.243.425 5.41-.728 9.787-4.488 12.949-8.733 2.674-3.578 7.598-10.309 5.41-15.039-1.52-3.335-5.836 5.64-6.018 5.943-3.04 6.792-5.958 13.645-12.462 17.768-.243.182-.122.546.121.425Z"/><path d="M68.024 95.998c4.195-1.638 7.356-5.155 9.91-8.794 1.458-2.061 2.552-4.305 3.525-6.61.912-2.183 2.188-4.548 2.188-6.913 0-.728-1.094-1.152-1.459-.424-2.006 4.002-3.16 8.247-5.532 12.128-2.431 3.942-5.714 6.913-8.814 10.31-.06.12 0 .363.182.303Z"/><path d="M82.492 73.681c-.425 1.94-.608 3.881-1.276 5.761-.669 1.94-1.641 3.578-2.006 5.58-.061.302.304.545.547.302 2.857-2.668 5.289-7.944 3.465-11.764-.122-.303-.669-.243-.73.121ZM56.9 98.666c7.173 2.122 15.44-3.275 22.188-5.458 1.338-.424 3.04-1.03 4.499-.788 1.155.182-2.189 2.547-2.432 2.668-1.033.546-2.188.91-3.343 1.274-5.775 1.88-11.855.849-17.569 2.486-.243.06-.182.424.06.424 6.627.667 13.861.061 20.062-2.486.79-.303 7.295-4.245 3.708-5.397-3.1-.97-7.72 1.455-10.517 2.547-5.41 2.062-10.76 4.427-16.656 4.487-.061 0-.122.182 0 .243Z"/><path d="M61.824 98.848c4.012 1.091 8.632-.425 12.523-1.516 2.431-.667 9.361-1.698 10.152-4.67.121-.364-.183-.728-.548-.728-1.459 0-2.978 1.031-4.316 1.517-1.945.667-3.951 1.212-5.896 1.758-3.952 1.092-7.964 2.062-11.915 3.093-.243.06-.243.424 0 .546Z"/><path d="M83.1 92.662c-1.215.667-2.249 1.516-3.343 2.305-1.155.849-2.553 1.395-3.952 1.819-.243.06-.304.485 0 .546 3.405.667 5.593-1.759 7.964-3.82.425-.486-.122-1.153-.669-.85ZM100 85.082s-13.617 2.123-14.772 2.123c-1.155 0-2.128-.97-2.128-2.123 0-1.152.973-2.122 2.128-2.122 1.155 0 14.772 2.122 14.772 2.122ZM14.468 85.264c-.608-6.368-.243-12.917-.243-19.345V45.422c0-13.645 0-27.29.122-40.934 0-.728 1.094-.728 1.094 0-.061 13.402-.061 26.864 0 40.267.06 13.34.912 26.925 0 40.266-.061.728-1.095.728-1.155 0-.851-12.917-.061-26.137 0-39.114.06-13.766.06-27.593 0-41.359 0-.727 1.094-.727 1.094 0 .06 13.22.121 26.501.121 39.721v20.498c0 6.792.365 13.766-.243 20.558-.06.485-.79.485-.79-.061Z"/><path d="M14.772 82.535C14.164 68.102-.973 58.581.061 43.724c.365-5.398 3.83-10.795 9.058-12.675 6.565-2.304 13.252-.182 18.419 4.245 4.62 4.003 8.146 11.037 4.012 16.556-2.492 3.274-8.814 6.428-11.793 2-1.885-2.789-1.58-7.398 1.641-9.156 3.404-1.88 6.748 2.304 5.289 5.397-.608 1.274-2.128 1.395-3.344 1.092-1.154-.304-.668-1.94.487-1.759l1.459-1.273c-.061-1.031-.608-1.638-1.52-1.88-.851-.364-1.58 0-2.188.606-1.095 1.03-1.216 2.91-1.155 4.306.182 3.032 3.04 3.82 5.592 3.214 3.526-.85 6.262-4.306 6.566-7.763.486-5.579-4.924-10.733-9.24-13.341-5.168-3.093-11.672-3.214-16.779.121-9.422 6.065-4.984 19.042-.547 26.622 4.256 7.278 9.119 13.706 9.119 22.438-.061.304-.365.304-.365.061Z"/><path d="M22.918 49.97c1.216-.667-.486-2.001-1.398-1.577-.487.243-.79.728-.912 1.213-.183.485-.183 1.152-.486 1.577-.061.121-.183.121-.304.121-1.095-.182-.973-1.94-.67-2.668.487-1.092 1.52-1.82 2.736-1.759 1.095.06 1.946.849 2.31 1.759.365.91-.303 1.576-1.154 1.637-.183.06-.244-.242-.122-.303Z"/><path d="M22.857 50.091c.304-.303.608-.788.669-1.152.06-.303 0-.606-.183-.91-.121-.182-.121-.182-.303-.364.121.061-.183-.06-.183-.12.183.06-.243-.062-.06 0-.183 0-.305 0-.426.12-.365.182-.608.486-1.034.425-.425-.06-.73-.303-.73-.728-.12-1.03 1.4-1.637 2.25-1.577.851.061 1.58.607 2.006 1.274.426.667.547 1.577.304 2.304-.182.425-.425.789-.79 1.031-.365.303-.79.243-1.216.243-.365-.06-.547-.364-.304-.546Z"/><path d="M24.802 49.12c.061-.666-.243-1.394-.79-1.758-.425-.303-1.337-.424-1.276-.97 0-.182.06-.364.243-.425 1.033-.485 1.945 0 2.553.91.608.788.425 1.88-.243 2.486-.183.122-.547 0-.487-.242Z"/><path d="M25.41 48.696c-.06-.667-.486-1.273-.972-1.698-.243-.182-.487-.364-.73-.485s-.486-.424-.668-.606c-.244-.182 0-.546.243-.546.425 0 .85 0 1.215.242.365.243.67.546.973.85.547.727.669 1.455.547 2.364-.121.304-.608.182-.608-.12ZM2.25 37.841c-.973 3.275-.548 7.277 1.276 10.188 1.398 2.244 4.255 2.972 6.383 1.213 1.276-1.091 1.702-3.032 1.398-4.609-.73-1.94-1.945-2.062-3.647-.424 0 .303.06 1.394.486 1.516.73.182 1.033 1.213.425 1.698-1.215.97-2.37.121-2.918-1.092-.85-1.82-.06-3.638 1.642-4.548 1.52-.788 3.769-.121 4.68 1.273 1.277 1.941.973 4.124-.12 6.065-2.068 3.699-6.749 2.79-8.937-.122-2.25-3.032-2.37-7.944-.912-11.28 0-.181.243-.06.243.122Z"/><path d="M11.307 47.665c.122-1.091-.304-4.184-2.006-3.76-.669.182-1.034 1.031-1.155 1.577-.122.607.304 1.092.365 1.698a.529.529 0 0 1-.365.485c-1.398.303-1.702-1.455-1.58-2.425.182-1.213 1.094-2.244 2.249-2.608 1.155-.364 2.31.424 2.796 1.516.486 1.152.365 2.426.182 3.639-.182.181-.486.12-.486-.122ZM14.833 30.503c4.073.061 9.362 2.79 10.517 6.914.547 1.88-.244 4.123-2.31 4.548-1.946.424-4.317-1.577-4.073-3.639a1.157 1.157 0 0 1 2.31 0c.06.607.486 1.031.972 1.274 1.034.606 1.824-.06 2.189-1.092.547-1.637-.851-3.093-1.946-4.123-2.006-1.82-4.984-3.214-7.66-3.639-.182 0-.12-.243 0-.243ZM13.982 75.5c-2.857-4.305-6.018-10.794-2.614-15.585 2.188-3.093 7.477-3.153 10.516-1.698 3.587 1.698 4.499 7.095.912 9.279-4.073 2.486-6.14-4.67-3.647-7.156.912-.91 2.492.242 1.763 1.394-.669 1.031-.912 2.062-.304 3.214 2.188.425 3.283-.303 3.343-2.183.061-1.091-.547-2.062-1.215-2.85-1.763-2.001-5.046-2.122-7.417-1.455-7.963 2.062-2.128 12.25-.669 16.737.183.425-.425.667-.668.303Z"/><path d="M24.56 63.372c.06 1.82-1.581 2.971-3.283 2.365-1.703-.606-2.858-2.547-2.189-4.245a1.735 1.735 0 0 1 1.034-1.031c.364-.121.85 0 .911.425.122.727-.364 1.455-.06 2.122.243.546.73 1.031 1.337 1.213.79.182 1.459-.485 1.885-1.031.121-.121.364 0 .364.182ZM31.125 52.214c-.67 1.091-1.58 3.88.182 4.487.365.121.851-.182 1.094-.424.365-.364.122-.304-.182-.425-1.398-.667-.183-2.729 1.216-2.062 2.918 1.334.972 5.64-1.946 5.034-1.276-.304-2.431-1.638-2.553-2.911-.182-1.638.73-2.85 1.945-3.82.183-.122.365 0 .244.12ZM6.444 50.637c3.222-.364 6.443 2.85 4.985 6.064-.547 1.274-2.189 1.638-3.405 1.213-1.52-.546-2.249-2.062-2.067-3.578.061-.485.67-.849 1.155-.849.73 0 1.095.546 1.155 1.152.122 1.092.973 1.516 1.581.546.547-.91 0-2.062-.608-2.729-.73-.788-1.824-1.334-2.857-1.516-.243.06-.182-.303.06-.303ZM3.04 35.719c1.64-2.73 4.498-4.185 7.66-3.639 2.37.425 4.68 2.729 3.586 5.215-.912 2.062-3.648 3.881-5.897 2.547-2.25-1.334-2.37-5.397.547-6.064 1.216-.303 2.128 1.516.912 2.123-1.763.849-.243 2 .851 1.94 1.58-.06 2.918-1.334 2.675-2.971-.304-2.123-3.708-2.305-5.228-2.062-1.885.303-3.587 1.637-4.863 2.971-.122.243-.304.061-.243-.06ZM32.097 43.178c-.425-.546-1.094-.789-1.763-.85-.608 0-1.155.425-1.033 1.092 0 0 .122.304.06.243-.06-.121.122.121 0 0 .061.06.183.121.244.182.304.182-.183-.06.121.06.304.122-.243 0 .061 0 .243 0-.121.061-.182.061-.183.06-.122.121-.06 0 .181-.182.364-.242.607-.364.365-.121.851.06 1.094.304.669.667.365 1.576-.304 2.061-.486.364-1.094.364-1.641.243-1.216-.243-2.067-1.274-1.945-2.547.121-1.395 1.215-2.426 2.614-2.486 1.215-.122 2.127.788 2.553 1.819 0 .182-.304.303-.426.182ZM15.502 57.55c.79-.182 1.398-1.03 1.64-1.758.062-.122.062-.243.062-.364v-.243c.06.121.182.121.243.121-.243 0-.365 0-.669.061-1.459.182-1.58-2.426 0-2.365 1.702.06 2.432 1.516 1.763 2.91-.243.607-.79 1.032-1.337 1.456-.547.425-1.095.485-1.763.485-.061 0-.061-.242.06-.303ZM15.198 46.15c-1.034-.728-.73-2.184-.244-3.154.608-1.152 1.885-2.062 3.162-1.638 1.154.425 1.823 1.76 1.702 2.911-.122 1.698-1.946 2.487-3.283 1.395-1.034-.91.304-2.608 1.459-1.88.243.182.365.121-.06.06-.183 0-.487.243-.366.122-.182.182.061-.121.061-.121.061-.121.183-.303.243-.425.183-.424-.06-.788-.547-.667-1.216.182-1.763 2.244-1.763 3.275 0 .121-.182.242-.364.121ZM15.866 30.867c-.243 1.152 0 2.668.608 3.7.304.485.851.788 1.338.485.182-.122.243-.486.364-.364-1.276-.85-.06-2.911 1.216-2.062 2.432 1.698.122 5.336-2.492 4.063-2.006-1.031-2.614-4.245-1.216-5.882.06-.182.182-.061.182.06Z"/><path d="M.79 42.147c-.912-6.792 3.587-10.855 8.936-14.07 5.532-3.335 12.949-5.336 19.332-3.153 2.006.728 3.83 2.244 3.89 4.488.061 2.001-2.127 2.122-3.526 1.94-1.337-.181-2.614-1.394-3.647-2.183-1.945-1.455-4.073-1.758-6.505-1.819-4.498-.06-7.963 2.304-12.158 3.457-.182.06-.303-.182-.182-.304 3.1-2.79 8.268-4.063 12.34-4.366 1.824-.121 4.195.06 5.836.97.973.546 1.885 1.153 2.797 1.759.79.667 1.763.728 2.857.303-.304-1.213-1.58-1.758-2.553-2.304-5.715-2.972-11.672-1.274-17.082 1.577-2.432 1.273-4.864 2.971-6.809 4.972-2.31 2.365-2.796 5.64-3.222 8.794 0 .12-.304.12-.304-.061Z"/><path d="M13.982 26.683c3.1-2.244 7.416-2.85 11.185-2.547 2.371.182 7.72 1.516 7.477 4.73 0 .364-.304.607-.668.546-1.095-.303-1.763-1.213-2.736-1.82-1.641-1.091-3.708-1.394-5.593-1.515-3.221-.243-6.383.303-9.544 1.091-.182 0-.304-.364-.121-.485Z"/><path d="M31.672 29.776c-1.946-.728-3.526-2.062-5.532-2.73-2.25-.788-4.681-.484-6.93-1.151-.304-.061-.365-.546-.061-.668 3.647-2.183 11.55-.181 13.01 4.064.06.242-.244.606-.487.485ZM1.58 38.266c-.607-5.276 5.41-9.157 9.788-10.552.243-.06.425.242.243.424-1.641 1.638-3.951 2.365-5.775 3.76-2.128 1.637-3.1 4.003-4.012 6.428 0 .182-.183.122-.243-.06Z"/><path d="M2.675 34.203c1.52-3.76 4.741-6.307 8.085-8.43 4.56-2.85 10.213-4.063 14.468-7.337 2.188-1.698-.669-2.062-2.25-1.82-1.458.243-2.796 1.031-4.072 1.759-2.189 1.213-4.377 2.547-6.444 4.002-2.492 1.759-4.56 4.124-6.14 6.792-.85 1.516-1.276 4.367-2.857 5.276-.182.121-.425 0-.425-.242.729-5.398 4.498-9.764 8.753-12.917 3.587-2.669 10.335-7.58 15.076-5.398 3.344 1.517-5.653 5.822-5.957 6.004C14.103 24.924 7.234 27.835 3.1 34.324c-.182.242-.547.121-.425-.121Z"/><path d="M4.012 31.898c1.642-4.184 5.167-7.337 8.815-9.884 2.067-1.456 4.316-2.547 6.626-3.518 2.188-.91 4.56-2.183 6.93-2.183.73 0 1.155 1.092.425 1.456-4.012 2-8.267 3.153-12.158 5.518-3.95 2.426-6.93 5.7-10.334 8.793-.121.06-.365 0-.304-.182Z"/><path d="M26.383 17.465c-1.945.425-3.89.607-5.775 1.274-1.945.667-3.587 1.637-5.593 2.001-.304.06-.547-.303-.304-.546 2.675-2.85 7.964-5.276 11.793-3.456.304.12.244.667-.121.727ZM1.337 42.996C-.79 35.84 4.62 27.593 6.81 20.86c.425-1.334 1.033-3.032.79-4.487-.183-1.152-2.553 2.183-2.675 2.425-.547 1.031-.912 2.184-1.277 3.336-1.884 5.76-.85 11.825-2.492 17.525-.06.243-.426.183-.426-.06-.668-6.61-.06-13.827 2.493-20.073.304-.788 4.255-7.277 5.41-3.7.973 3.094-1.459 7.703-2.553 10.492-2.067 5.397-4.438 10.734-4.498 16.616 0 .121-.183.182-.244.06Z"/><path d="M1.216 38.084c-1.094-4.003.425-8.612 1.52-12.493.668-2.425 1.702-9.339 4.68-10.127.365-.121.73.182.73.546 0 1.455-1.034 2.971-1.52 4.305-.669 1.94-1.216 3.942-1.763 5.883-1.094 3.942-2.067 7.944-3.1 11.886-.122.242-.486.242-.547 0Z"/><path d="M7.416 16.859c-.668 1.213-1.52 2.243-2.31 3.335-.85 1.152-1.398 2.547-1.823 3.942-.061.242-.487.303-.547 0-.67-3.396 1.762-5.58 3.83-7.944.425-.486 1.094.121.85.667ZM14.954 0s-2.127 13.584-2.127 14.736c0 1.152.972 2.123 2.127 2.123 1.155 0 2.128-.97 2.128-2.123C17.082 13.584 14.954 0 14.954 0Z"/></g></svg>