<svg xmlns="http://www.w3.org/2000/svg" width="78" height="78" viewBox="0 0 78 78" fill="none"><path fill-rule="evenodd" clip-rule="evenodd" d="M77.997 40.663c-.162 10.185-8.11 18.081-15.702 24.988C55.096 72.201 46.75 78.037 36.955 78c-9.763-.037-18.332-5.642-25.146-12.539C5.1 58.668.564 50.134.071 40.663c-.52-9.996 1.766-20.479 9.017-27.482 7.196-6.95 17.801-8.458 27.868-8.142 9.692.305 18.866 3.521 26.146 9.84 7.827 6.794 15.059 15.502 14.895 25.784Z" fill="#FDD9C4"></path><path d="M44.19 27.91c0-.931-.753-1.686-1.684-1.688-6.456-.01-11.715-5.274-11.725-11.735a1.687 1.687 0 0 0-3.372 0c-.01 6.461-5.27 11.725-11.725 11.735a1.687 1.687 0 0 0 0 3.375c6.455.01 11.715 5.274 11.725 11.735a1.687 1.687 0 0 0 3.372 0c.01-6.46 5.27-11.725 11.725-11.735a1.687 1.687 0 0 0 1.684-1.687Zm-12.354 2.743a15.16 15.16 0 0 0-2.74 3.738 15.168 15.168 0 0 0-2.742-3.738 15.161 15.161 0 0 0-3.735-2.743 15.16 15.16 0 0 0 3.735-2.744 15.171 15.171 0 0 0 2.741-3.738 15.166 15.166 0 0 0 2.741 3.738 15.157 15.157 0 0 0 3.735 2.744 15.155 15.155 0 0 0-3.735 2.743ZM60.698 41.38c-4.159-.007-7.547-3.398-7.553-7.56a1.687 1.687 0 0 0-3.373 0c-.006 4.162-3.394 7.553-7.553 7.56a1.687 1.687 0 0 0 0 3.375c4.159.006 7.547 3.397 7.553 7.56a1.687 1.687 0 0 0 3.373 0c.006-4.163 3.394-7.554 7.553-7.56a1.687 1.687 0 0 0 0-3.375Zm-9.24 5.116a11.046 11.046 0 0 0-3.426-3.429 11.046 11.046 0 0 0 3.427-3.43 11.045 11.045 0 0 0 3.426 3.43 11.046 11.046 0 0 0-3.426 3.43Zm10.858-35.631c-5.05-.008-9.164-4.126-9.171-9.18a1.687 1.687 0 0 0-3.373 0c-.007 5.054-4.121 9.172-9.171 9.18a1.687 1.687 0 0 0 0 3.375c5.05.007 9.164 4.125 9.172 9.18a1.687 1.687 0 0 0 3.372 0c.007-5.055 4.122-9.173 9.171-9.18a1.687 1.687 0 0 0 0-3.375ZM51.46 17.152a12.674 12.674 0 0 0-4.597-4.6 12.674 12.674 0 0 0 4.597-4.6 12.672 12.672 0 0 0 4.596 4.6 12.67 12.67 0 0 0-4.596 4.6Z" fill="#D17474"></path></svg>