<svg xmlns="http://www.w3.org/2000/svg" width="85" height="78" viewBox="0 0 85 78" fill="none"><path fill-rule="evenodd" clip-rule="evenodd" d="M81.997 40.663c-.162 10.185-8.11 18.081-15.702 24.988C59.096 72.201 50.75 78.037 40.955 78c-9.763-.037-18.332-5.642-25.146-12.539C9.1 58.668 4.564 50.134 4.071 40.663c-.52-9.996 1.766-20.479 9.017-27.482 7.196-6.95 17.801-8.458 27.868-8.142 9.692.305 18.866 3.521 26.146 9.84 7.827 6.794 15.059 15.502 14.895 25.784Z" fill="#FDD9C4"></path><path d="M83.805 2.593A56.248 56.248 0 0 0 61.09.303c-8.4.889-14.89 3.85-18.77 8.565A18.337 18.337 0 0 0 40.13 28.39c.329.65.702 1.28 1.115 1.881a55.92 55.92 0 0 0-3.387 9.685 46.177 46.177 0 0 0-1.808-2.047c.088-.193.172-.388.25-.586 1.998-5.073.753-11.1-3.099-14.997-3.328-3.37-8.525-5.204-15.028-5.309A42.936 42.936 0 0 0 1.05 20.312a1.698 1.698 0 0 0-1.046 1.462 1.692 1.692 0 0 0 .862 1.574 16.584 16.584 0 0 1 7.199 8.3c.359.928.638 1.9.934 2.927.221.768.45 1.563.717 2.345a15.06 15.06 0 0 0 1.719 3.619c2.452 3.653 6.507 5.724 11.062 5.724 4.497-.003 8.764-1.961 11.663-5.353a41.635 41.635 0 0 1 2.505 3.075c4.038 5.482 5.224 9.97 5.235 10.015l3.34-.825c-.046-.186-1.108-4.274-4.651-9.564a51.84 51.84 0 0 1 3.143-10.456c3.384 3.152 8.055 5.068 13.016 5.149.11.002.219.002.329.002 6.567 0 12.23-3.211 15.193-8.636.74-1.353 1.303-2.89 1.773-4.835.253-1.05.457-2.116.654-3.148.267-1.4.52-2.722.886-4.008A22.397 22.397 0 0 1 84.266 5.6a1.687 1.687 0 0 0-.462-3.008ZM33.372 35.265c-4.307-3.935-10.252-7.963-18.318-10.942l-1.208 3.18c8.063 2.979 13.847 7.053 17.913 10.933-1.826 2.383-4.744 4.019-8.005 4.365-3.958.42-7.403-1.087-9.45-4.137a11.828 11.828 0 0 1-1.325-2.826c-.24-.706-.448-1.426-.668-2.19-.303-1.052-.617-2.143-1.03-3.21a19.705 19.705 0 0 0-5.89-8.11 39.439 39.439 0 0 1 12.727-1.914c3.887.062 9.23.856 12.618 4.283 2.674 2.706 3.7 6.94 2.636 10.568ZM72.267 16.76c-.407 1.431-.685 2.89-.954 4.301-.198 1.037-.385 2.018-.62 2.988-.399 1.65-.861 2.924-1.454 4.01-2.391 4.377-7.039 6.932-12.435 6.85-4.528-.074-8.748-1.981-11.541-5.059l.023-.046c2.269-4.436 5.079-8.175 8.35-11.114a30.482 30.482 0 0 1 14.259-7.213l-.722-3.32a33.902 33.902 0 0 0-15.856 8.023c-3.167 2.846-5.927 6.356-8.223 10.452-2.377-4.97-1.613-11.355 1.9-15.623 4.162-5.058 11.25-6.777 16.463-7.329a51.872 51.872 0 0 1 5.447-.285c4.286 0 8.556.52 12.714 1.55a25.44 25.44 0 0 0-7.35 11.815Z" fill="#D17474"></path></svg>