<svg xmlns="http://www.w3.org/2000/svg" width="110" height="128" fill="none"><path fill="#FDCACA" d="M109.994 73.909c.154 11.527-2.52 23.125-9.351 32.423-6.813 9.273-17.122 15.145-28.121 18.576-10.901 3.401-22.692 4.532-33.422.625-10.508-3.826-17.724-12.797-24.468-21.701C7.758 94.755-.087 85.285.001 73.909c.087-11.344 8.373-20.437 15.09-29.591 6.69-9.119 12.839-19.767 23.633-23.19 10.77-3.416 21.952 1.672 32.638 5.344 10.486 3.603 21.428 7.05 28.421 15.637 7.212 8.855 10.058 20.39 10.211 31.8z" clip-rule="evenodd" fill-rule="evenodd"></path><path fill="#D17474" d="M108.43 16.5c-.436-2.734-2.829-5.087-5.59-5.087h-.054A74.412 74.412 0 0 0 55.92 28.671a36.048 36.048 0 0 0-4.053-13.804A36.226 36.226 0 0 0 38.403.71c-2.298-1.374-5.168-.993-6.963.925-8.54 9.098-13.137 20.984-12.933 33.47.19 12.022 4.814 23.337 13.056 32.027a71.987 71.987 0 0 0-1.755 9.058 2.322 2.322 0 0 0 2 2.597c.095.014.203.014.299.014a2.302 2.302 0 0 0 2.284-2.013 68.251 68.251 0 0 1 1.89-9.357 2.05 2.05 0 0 0 .178-.625c8.336-29.227 35.292-50.443 66.408-50.769h.014c.49 0 .952.394 1.033.87a107.386 107.386 0 0 1 .164 32.6 1.491 1.491 0 0 0-.068.244c-3.196 13.723-12.118 25.446-24.507 32.151a49.32 49.32 0 0 1-35.564 4.474 113.574 113.574 0 0 0 11.573-8.731 112.897 112.897 0 0 0 24.29-29.362 2.304 2.304 0 0 0-.857-3.156 2.304 2.304 0 0 0-3.155.857C66.46 62.1 53.119 75.564 37.26 85.057c-.067.027-.121.068-.19.109a108.461 108.461 0 0 1-15.966 7.82c-1.183.462-1.781 1.809-1.305 2.992a2.303 2.303 0 0 0 2.148 1.469c.286 0 .572-.055.844-.164a113.142 113.142 0 0 0 15.83-7.656 54.04 54.04 0 0 0 17.313 2.856c8.894 0 17.748-2.19 25.717-6.528a53.91 53.91 0 0 0 26.697-34.721c.082-.19.15-.395.177-.612 1.754-11.424 1.713-22.698-.095-34.122zM41.722 44.42a92.49 92.49 0 0 0-.327-6.977c-.421-4.705-1.224-9.656-2.448-15.164-.272-1.25-1.51-2.026-2.76-1.754-1.252.272-2.027 1.51-1.755 2.76 1.183 5.305 1.959 10.065 2.353 14.566.38 4.312.422 9.058.109 14.892a73.28 73.28 0 0 0-3.808 9.18c-13.927-16.619-13.45-41.004 1.7-57.133.299-.327.816-.367 1.237-.123 9.915 5.903 15.75 16.592 15.382 28.07a74.009 74.009 0 0 0-9.683 11.683z"></path></svg>