<svg xmlns="http://www.w3.org/2000/svg" width="110" height="128" viewBox="0 0 110 128" fill="none"><path fill-rule="evenodd" clip-rule="evenodd" d="M109.994 73.909c.154 11.527-2.52 23.125-9.351 32.423-6.813 9.273-17.122 15.145-28.121 18.576-10.901 3.401-22.692 4.532-33.422.625-10.508-3.826-17.724-12.797-24.468-21.701C7.758 94.755-.087 85.285.001 73.909c.087-11.344 8.373-20.437 15.09-29.591 6.69-9.119 12.839-19.767 23.633-23.19 10.77-3.416 21.952 1.672 32.638 5.344 10.486 3.603 21.428 7.05 28.421 15.637 7.212 8.855 10.058 20.39 10.211 31.8Z" fill="#FDCACA"></path><g fill="#D17474"><path d="M56.633 55.535V39.202h-3.266V17.97h-.064c.1-3.43-2.01-7.897-5.91-11.895C43.73 2.33 39.344.005 35.934.005a5.446 5.446 0 0 0-4.008 1.538A6.051 6.051 0 0 0 30.5 6.619v32.583h-3.267v16.333h-3.266V98H59.9V55.535h-3.267ZM34.257 3.825a2.248 2.248 0 0 1 1.676-.554c2.525 0 6.104 1.997 9.12 5.087 4.387 4.492 5.955 9.599 4.426 11.164a2.251 2.251 0 0 1-1.669.555c-2.523 0-6.105-1.998-9.12-5.088-4.387-4.493-5.955-9.595-4.433-11.165Zm15.84 19.105v16.272h-16.33V14.197a26.787 26.787 0 0 0 2.584 3.074c3.657 3.745 8.047 6.072 11.46 6.072a6.232 6.232 0 0 0 2.286-.413ZM30.5 42.47h22.866v13.066H30.5V42.47Zm26.132 52.265H27.234V58.802h29.4v35.932ZM77.865 55.535V32.669h4.9v-3.266h-4.9v-3.267h4.9V22.87h-4.9v-3.267h4.9v-3.266h-4.9V13.07h4.9V9.803h-4.9V6.537h3.267V3.27h-3.267V.004H74.6V3.27h-3.267v3.267H74.6v3.266h-4.9v3.267h4.9v3.267h-4.9v3.266h4.9v3.267h-4.9v3.266h4.9v3.267h-4.9v3.266h4.9v22.866h-8.166V98h19.599V55.535h-8.166Zm4.9 39.198H69.7V58.801h13.066v35.932Z"></path></g></svg>