<svg xmlns="http://www.w3.org/2000/svg" width="39" height="53" viewBox="0 0 39 53" fill="none"><path d="M26.831 53A1.16 1.16 0 0 0 28 51.85c0-.307-.123-.602-.343-.819L2.815 26.492 27.657 1.953a1.143 1.143 0 0 0-.028-1.63 1.177 1.177 0 0 0-1.621 0L.342 25.68a1.143 1.143 0 0 0 0 1.63l25.666 25.354c.218.216.514.337.823.337Z" fill="currentColor"></path><path opacity=".5" d="M38.207 45a.798.798 0 0 0 .793-.803.81.81 0 0 0-.233-.57L21.911 26.5 38.767 9.375a.814.814 0 0 0 0-1.14.784.784 0 0 0-1.12 0L20.232 25.932a.813.813 0 0 0 0 1.137l17.415 17.695c.148.152.35.237.56.237Z" fill="currentColor"></path></svg>