<svg xmlns="http://www.w3.org/2000/svg" width="39" height="53" viewBox="0 0 39 53" fill="none"><path d="M12.169 53A1.16 1.16 0 0 1 11 51.85c0-.307.123-.602.343-.819l24.842-24.539L11.343 1.953a1.143 1.143 0 0 1 .028-1.63 1.177 1.177 0 0 1 1.621 0L38.658 25.68c.456.45.456 1.18 0 1.63L12.992 52.662a1.173 1.173 0 0 1-.823.337Z" fill="currentColor"></path><path opacity=".5" d="M.793 45A.798.798 0 0 1 0 44.197c0-.214.083-.42.233-.57L17.088 26.5.233 9.375a.815.815 0 0 1 0-1.14.784.784 0 0 1 1.12 0l17.415 17.696c.31.314.31.823 0 1.137L1.353 44.763a.785.785 0 0 1-.56.237Z" fill="currentColor"></path></svg>