<svg xmlns="http://www.w3.org/2000/svg" width="22" height="22" viewBox="0 0 22 22" fill="none"><path d="M16.763 3.59h-2.509v-.336A3.257 3.257 0 0 0 11 0a3.257 3.257 0 0 0-3.253 3.254v.336h-2.51a1.42 1.42 0 0 0-1.419 1.42V20.58A1.42 1.42 0 0 0 5.238 22h11.525a1.42 1.42 0 0 0 1.42-1.419V5.009a1.42 1.42 0 0 0-1.42-1.419Zm-8.06-.336A2.3 2.3 0 0 1 11 .956a2.3 2.3 0 0 1 2.298 2.298v.336H8.703v-.336ZM5.237 4.546h2.51v.468A1.88 1.88 0 0 0 6.348 6.83c0 1.035.842 1.876 1.877 1.876a1.879 1.879 0 0 0 1.327-3.203 1.864 1.864 0 0 0-.849-.488v-.468h4.595v.469A1.88 1.88 0 0 0 11.9 6.829c0 1.035.842 1.876 1.877 1.876a1.879 1.879 0 0 0 1.326-3.203 1.865 1.865 0 0 0-.849-.488v-.468h2.51c.255 0 .462.208.462.463v12.558H4.775V5.009c0-.255.207-.463.462-.463Zm2.988 2.56a.478.478 0 0 0 .478-.477v-.585a.914.914 0 0 1 .442.785.921.921 0 0 1-1.84 0 .92.92 0 0 1 .442-.785v.585c0 .264.214.478.478.478Zm5.551 0a.478.478 0 0 0 .478-.477v-.586a.914.914 0 0 1 .442.786.921.921 0 0 1-1.84 0 .92.92 0 0 1 .442-.784v.584c0 .264.214.478.478.478Zm2.987 13.938H5.237a.463.463 0 0 1-.462-.463v-2.058h12.451v2.058a.463.463 0 0 1-.463.463Z" fill="currentColor"></path></svg>