<svg xmlns="http://www.w3.org/2000/svg" width="1030" height="144" viewBox="0 0 1030 144" fill="none"><path d="M.746 141.544v-4.339l14.849-.964V9.256L.746 8.292V3.953H95.72l.964 39.243h-4.05c-.77-4.37-1.606-8.067-2.506-11.088-.836-3.086-2.057-6.171-3.664-9.256-1.607-3.086-3.504-5.529-5.69-7.328-2.12-1.864-4.884-3.375-8.291-4.532-3.343-1.157-7.232-1.736-11.667-1.736-5.464 0-12.31.322-20.538.964v57.274c1.929.193 5.432.29 10.51.29 6.75 0 11.57-1.64 14.463-4.918 2.893-3.343 4.34-9.385 4.34-18.127h5.302v51.777H69.59c0-8.742-1.478-14.816-4.435-18.223-2.893-3.471-7.682-5.207-14.367-5.207-4.95 0-8.453.097-10.51.29v61.901c8.228.643 16.392.964 24.491.964 3.793 0 7.135-.289 10.028-.867 2.892-.643 5.4-1.672 7.52-3.086 2.122-1.414 3.922-2.989 5.4-4.725 1.478-1.799 2.764-4.081 3.857-6.845a59.932 59.932 0 0 0 2.796-8.292c.707-2.764 1.446-6.171 2.218-10.221h4.146l-1.06 39.339H.745Z" fill="url(#a)"></path><path d="M187.13 8.292V3.953h20.634l82.728 100.277h.193l-1.35-94.974-14.752-.964V3.953h35.675v4.34l-14.849.963 1.061 134.217h-5.882L207.86 42.907h-.193l1.35 93.334 14.752.964v4.339h-35.675v-4.339l14.849-.964-1.061-126.985-14.752-.964Z" fill="url(#b)"></path><path d="m396.076 49.174 2.989-45.22h89.477v5.11l-66.626 127.563 36.736.578h.386c3.728-.064 7.135-.932 10.22-2.603 3.15-1.8 5.753-4.082 7.81-6.846 2.122-2.828 3.954-6.363 5.496-10.606 1.607-4.307 2.829-8.517 3.664-12.631.9-4.178 1.671-8.87 2.314-14.077h4.339l-2.989 51.102h-93.527v-5.303L466.462 8.678l-32.493.578c-10.157.193-17.774 3.504-22.852 9.932-5.078 6.363-8.646 16.359-10.703 29.986h-4.338Z" fill="url(#c)"></path><path d="M578.602 141.544v-4.339l14.849-.964V9.256l-14.849-.964V3.953h54.381v4.34l-14.849.963v126.985l14.849.964v4.339h-54.381Z" fill="url(#d)"></path><path d="M709.544 141.544v-4.339l11.667-.964L766.818 0h4.339l47.149 136.241 12.727.964v4.339h-51.584v-4.339l13.016-.964-11.377-34.614h-43.196l-11.185 34.614 13.017.964v4.339h-30.18Zm30.083-45.703 39.34-.771-19.284-59.202h-.386l-19.67 59.973Z" fill="url(#e)"></path><path d="M906.245 8.292V3.953h20.634l82.731 100.277h.19l-1.35-94.974-14.752-.964V3.953h35.672v4.34l-14.85.963 1.06 134.217h-5.88L926.975 42.907h-.193l1.35 93.334 14.752.964v4.339h-35.675v-4.339l14.849-.964-1.061-126.985-14.752-.964Z" fill="url(#f)"></path><defs><linearGradient id="a" x1="515.06" y1="0" x2="515.06" y2="143.473" gradientUnits="userSpaceOnUse"><stop stop-color="#FF9E9E"></stop><stop offset="1" stop-color="#FF9E9E" stop-opacity="0"></stop></linearGradient><linearGradient id="b" x1="515.06" y1="0" x2="515.06" y2="143.473" gradientUnits="userSpaceOnUse"><stop stop-color="#FF9E9E"></stop><stop offset="1" stop-color="#FF9E9E" stop-opacity="0"></stop></linearGradient><linearGradient id="c" x1="515.06" y1="0" x2="515.06" y2="143.473" gradientUnits="userSpaceOnUse"><stop stop-color="#FF9E9E"></stop><stop offset="1" stop-color="#FF9E9E" stop-opacity="0"></stop></linearGradient><linearGradient id="d" x1="515.06" y1="0" x2="515.06" y2="143.473" gradientUnits="userSpaceOnUse"><stop stop-color="#FF9E9E"></stop><stop offset="1" stop-color="#FF9E9E" stop-opacity="0"></stop></linearGradient><linearGradient id="e" x1="515.06" y1="0" x2="515.06" y2="143.473" gradientUnits="userSpaceOnUse"><stop stop-color="#FF9E9E"></stop><stop offset="1" stop-color="#FF9E9E" stop-opacity="0"></stop></linearGradient><linearGradient id="f" x1="515.06" y1="0" x2="515.06" y2="143.473" gradientUnits="userSpaceOnUse"><stop stop-color="#FF9E9E"></stop><stop offset="1" stop-color="#FF9E9E" stop-opacity="0"></stop></linearGradient></defs></svg>