<svg xmlns="http://www.w3.org/2000/svg" width="48" height="48" viewBox="0 0 48 48" fill="none"><path d="M27.92 14.15a7.998 7.998 0 0 0-10.572-8.676A8 8 0 0 0 12 13c0 .95.05 2 1.07 2a.999.999 0 0 0 1-1.15 6 6 0 1 1 11.88 0 1 1 0 0 0 1.97.3Z" fill="#D06565"></path><path d="M20 2a11 11 0 0 1 10.65 13.75 1.002 1.002 0 0 0 1.94.5 13 13 0 1 0-25.18 0 1.002 1.002 0 0 0 1.94-.5A11 11 0 0 1 20 2Z" fill="#000"></path><path d="M36 23.57a4 4 0 0 0-6.18-2.89A4 4 0 0 0 24 18.56v-4.39a4 4 0 0 0-6.75-3.07C15.59 12.67 16 13.43 16 25c-2.7-2-6-.8-6 2v8a13 13 0 0 0 13 13h6a13 13 0 0 0 13-13v-7.83a4 4 0 0 0-6-3.6ZM40 35a11 11 0 0 1-11 11h-6a11 11 0 0 1-11-11v-8c0-1.4 2-1.23 3.09-.16 1.09 1.07.91 2.02.91 8.16a1 1 0 0 0 2 0V14a2 2 0 0 1 2.11-2A2.13 2.13 0 0 1 22 14.17V29a1 1 0 0 0 2 0v-7a2 2 0 0 1 4 0v7a1 1 0 0 0 2 0v-5a2 2 0 0 1 4 0v5a1 1 0 0 0 2 0c0-2.17-.13-2.74.62-3.45A2 2 0 0 1 40 27.17V35Z" fill="#000"></path></svg>