<svg xmlns="http://www.w3.org/2000/svg" width="48" height="48" viewBox="0 0 48 48" fill="none"><path d="M26.182 33.818a1.09 1.09 0 1 0 0-2.182 1.09 1.09 0 0 0 0 2.182ZM7.636 40.363a1.09 1.09 0 1 0 0-2.181 1.09 1.09 0 0 0 0 2.181Z" fill="#000"></path><path d="M44.727 4.364H7.637c-1.855 0-3.273 1.418-3.273 3.272v10.91c0 .654.436 1.09 1.09 1.09.655 0 1.091-.436 1.091-1.09V7.636c0-.654.437-1.09 1.091-1.09h37.091c.655 0 1.091.436 1.091 1.09v26.182c0 .655-.436 1.091-1.09 1.091H18.544c-.654 0-1.09.437-1.09 1.091 0 .655.436 1.091 1.09 1.091h2.182v3.273c0 .654-.436 1.09-1.09 1.09h-1.091c-.655 0-1.091.437-1.091 1.091 0 .655.436 1.091 1.09 1.091h15.273c.655 0 1.091-.436 1.091-1.09 0-.655-.436-1.091-1.09-1.091h-1.092c-.654 0-1.09-.437-1.09-1.091V37.09h13.09c1.855 0 3.273-1.418 3.273-3.273V7.637c0-1.855-1.418-3.273-3.273-3.273Zm-22.036 37.09c.109-.327.218-.654.218-1.09V37.09h6.546v3.273c0 .436.109.764.218 1.09H22.69Z" fill="#000"></path><path d="M42.545 28.364h-24c-.654 0-1.09.436-1.09 1.09 0 .655.436 1.091 1.09 1.091h24c.655 0 1.091-.436 1.091-1.09 0-.655-.436-1.091-1.09-1.091Z" fill="#D06565"></path><path d="M12 21.818H3.273C1.418 21.818 0 23.237 0 25.091v15.273c0 1.854 1.418 3.273 3.273 3.273H12c1.855 0 3.273-1.419 3.273-3.273V25.09c0-1.854-1.418-3.273-3.273-3.273Zm1.09 18.546c0 .654-.435 1.09-1.09 1.09H3.273c-.655 0-1.091-.436-1.091-1.09V25.09c0-.655.436-1.09 1.09-1.09H12c.655 0 1.09.436 1.09 1.09v15.273Z" fill="#000"></path></svg>