<svg xmlns="http://www.w3.org/2000/svg" width="48" height="48" viewBox="0 0 48 48" fill="none"><path d="M10.194 30.31a1 1 0 0 1-.902-.566l-2.587-5.38a4.751 4.751 0 0 1-5.383-2.556 4.752 4.752 0 0 1 1.364-5.802l-2.587-5.38a1 1 0 0 1 .468-1.334l5.38-2.587a4.752 4.752 0 0 1 2.556-5.383 4.712 4.712 0 0 1 3.625-.202 4.71 4.71 0 0 1 2.178 1.565L19.684.1a1 1 0 0 1 1.335.468l2.587 5.38a4.752 4.752 0 0 1 5.383 2.556c.55 1.142.62 2.43.202 3.625a4.711 4.711 0 0 1-1.565 2.178l2.586 5.378a1 1 0 0 1-.468 1.335l-6.185 2.974a1 1 0 0 1-1.335-.468 2.725 2.725 0 0 0-1.564-1.4 2.725 2.725 0 0 0-2.097.117 2.726 2.726 0 0 0-1.4 1.564 2.725 2.725 0 0 0 .116 2.097 1 1 0 0 1-.467 1.335l-6.186 2.974a.996.996 0 0 1-.432.099Zm-2.975-8.184a1 1 0 0 1 .901.566l2.541 5.284 4.477-2.153a4.711 4.711 0 0 1 .138-2.678 4.713 4.713 0 0 1 2.42-2.706 4.712 4.712 0 0 1 3.625-.201 4.711 4.711 0 0 1 2.178 1.564l4.477-2.152-2.54-5.284a1 1 0 0 1 .467-1.335 2.725 2.725 0 0 0 1.4-1.565 2.726 2.726 0 0 0-.116-2.096 2.747 2.747 0 0 0-3.662-1.284 1 1 0 0 1-1.334-.468L19.65 2.335l-5.284 2.54a1 1 0 0 1-1.335-.467 2.725 2.725 0 0 0-1.565-1.4 2.725 2.725 0 0 0-2.096.116 2.747 2.747 0 0 0-1.284 3.662A1 1 0 0 1 7.62 8.12l-5.284 2.541 2.54 5.284a1 1 0 0 1-.467 1.334 2.747 2.747 0 0 0-1.284 3.662 2.746 2.746 0 0 0 3.662 1.283c.136-.065.284-.099.433-.099Z" fill="#000"></path><path d="M43.557 48h-6.314a1 1 0 0 1-1-1 2.446 2.446 0 0 0-2.443-2.444A2.446 2.446 0 0 0 31.357 47a1 1 0 0 1-1 1h-6.313a1 1 0 0 1-1-1v-5.427a4.451 4.451 0 0 1-3.444-4.33 4.451 4.451 0 0 1 3.444-4.33v-5.426a1 1 0 0 1 1-1h5.426a4.451 4.451 0 0 1 4.33-3.444 4.451 4.451 0 0 1 4.33 3.444h5.427a1 1 0 0 1 1 1v5.426A4.451 4.451 0 0 1 48 37.243a4.451 4.451 0 0 1-3.443 4.33V47a1 1 0 0 1-1 1Zm-5.427-2h4.427v-5.313a1 1 0 0 1 1-1A2.446 2.446 0 0 0 46 37.242a2.446 2.446 0 0 0-2.443-2.443 1 1 0 0 1-1-1v-5.313h-5.314a1 1 0 0 1-1-1 2.446 2.446 0 0 0-2.443-2.444 2.446 2.446 0 0 0-2.443 2.444 1 1 0 0 1-1 1h-5.313V33.8a1 1 0 0 1-1 1 2.446 2.446 0 0 0-2.444 2.443 2.446 2.446 0 0 0 2.444 2.444 1 1 0 0 1 1 1V46h4.426a4.451 4.451 0 0 1 4.33-3.444A4.451 4.451 0 0 1 38.13 46Z" fill="#D06565"></path></svg>