<svg xmlns="http://www.w3.org/2000/svg" width="48" height="48" viewBox="0 0 48 48" fill="none"><path d="M24 0c13.255 0 24 10.745 24 24S37.255 48 24 48 0 37.255 0 24 10.745 0 24 0Zm0 2.526C12.14 2.526 2.526 12.14 2.526 24S12.14 45.474 24 45.474 45.474 35.86 45.474 24 35.86 2.526 24 2.526Zm13.525 7.95c.455.455.537 1.276 0 1.786l-9.172 9.171a5.053 5.053 0 1 1-1.786-1.786l9.171-9.172a1.263 1.263 0 0 1 1.787 0ZM24 21.473a2.526 2.526 0 1 0 0 5.052 2.526 2.526 0 0 0 0-5.052Zm14.928-4.325A16.365 16.365 0 0 1 40.42 24a1.263 1.263 0 0 1-2.526 0c0-2.03-.435-3.994-1.263-5.796a1.263 1.263 0 0 1 2.296-1.055ZM24 7.579c2.417 0 4.763.523 6.91 1.52a1.263 1.263 0 0 1-1.064 2.292A13.837 13.837 0 0 0 24 10.105c-7.674 0-13.895 6.221-13.895 13.895a1.263 1.263 0 0 1-2.526 0C7.579 14.93 14.93 7.579 24 7.579Z" fill="#000"></path><path d="M37.525 10.475c.455.456.537 1.277 0 1.787l-9.172 9.171a5.053 5.053 0 1 1-1.786-1.786l9.171-9.172a1.263 1.263 0 0 1 1.787 0ZM24 21.474a2.526 2.526 0 1 0 0 5.053 2.526 2.526 0 0 0 0-5.053Z" fill="#D06565"></path></svg>