<svg xmlns="http://www.w3.org/2000/svg" width="48" height="48" viewBox="0 0 48 48" fill="none"><path d="M16 11.429h-2.286V2.286H4.572V0H16v11.429Z" fill="#000"></path><path d="M24 48C10.772 48 0 37.229 0 24A23.813 23.813 0 0 1 7.286 6.786L14.072.314l1.57 1.658-6.77 6.457A21.541 21.541 0 0 0 2.285 24c0 11.971 9.743 21.714 21.714 21.714V48ZM43.429 48H32V36.572h2.286v9.142h9.143V48Z" fill="#000"></path><path d="m33.929 47.685-1.572-1.656 6.771-6.458A21.542 21.542 0 0 0 45.714 24c0-11.971-9.743-21.714-21.714-21.714V0c13.229 0 24 10.772 24 24a23.813 23.813 0 0 1-7.286 17.214l-6.785 6.471Z" fill="#000"></path><path d="M22.843 32.471 11.086 20.715 12.7 19.1l10.143 10.142 14.743-14.742 1.614 1.614-16.357 16.357Z" fill="#D06565"></path></svg>