<svg xmlns="http://www.w3.org/2000/svg" width="48" height="48" viewBox="0 0 48 48" fill="none"><path d="M43.781 19.781h-1.5v-1.406C42.281 8.243 34.081 0 24 0 13.92 0 5.719 8.243 5.719 18.375v1.406h-1.5A4.224 4.224 0 0 0 0 24v8.438a4.224 4.224 0 0 0 4.219 4.218H5.96a4.226 4.226 0 0 0 3.978 2.813 4.224 4.224 0 0 0 4.218-4.219V21.187a4.223 4.223 0 0 0-4.219-4.218c-.476 0-.934.08-1.361.227C9.176 9.163 15.865 2.812 24 2.812s14.824 6.351 15.424 14.384a4.19 4.19 0 0 0-1.361-.227 4.223 4.223 0 0 0-4.22 4.218V35.25a4.224 4.224 0 0 0 5.626 3.977v1.742c0 .775-.631 1.406-1.407 1.406H27.977A4.226 4.226 0 0 0 24 39.562a4.224 4.224 0 0 0-4.219 4.22A4.224 4.224 0 0 0 24 48a4.226 4.226 0 0 0 3.977-2.813h10.085a4.224 4.224 0 0 0 4.22-4.218v-4.313h1.5A4.224 4.224 0 0 0 48 32.438V24a4.224 4.224 0 0 0-4.219-4.219ZM2.813 32.438V24c0-.775.63-1.406 1.406-1.406h1.5v11.25h-1.5a1.408 1.408 0 0 1-1.407-1.407ZM9.936 19.78c.776 0 1.407.631 1.407 1.407V35.25c0 .775-.631 1.406-1.406 1.406-.776 0-1.407-.63-1.407-1.406V21.187c0-.775.631-1.406 1.406-1.406ZM24 45.188a1.408 1.408 0 0 1-1.406-1.407c0-.775.63-1.406 1.406-1.406.775 0 1.406.631 1.406 1.406 0 .776-.63 1.407-1.406 1.407Zm14.063-8.532c-.776 0-1.407-.63-1.407-1.406V21.187c0-.775.631-1.406 1.407-1.406.775 0 1.406.631 1.406 1.407V35.25c0 .775-.631 1.406-1.407 1.406Zm7.124-4.218c0 .775-.63 1.406-1.406 1.406h-1.5v-11.25h1.5c.776 0 1.407.63 1.407 1.406v8.438Z" fill="#000"></path><path fill-rule="evenodd" clip-rule="evenodd" d="M39.469 40.969c0 .775-.631 1.406-1.407 1.406H27.977A4.226 4.226 0 0 0 24 39.562a4.224 4.224 0 0 0-4.219 4.22A4.224 4.224 0 0 0 24 48a4.226 4.226 0 0 0 3.977-2.813h10.085a4.224 4.224 0 0 0 4.22-4.218h-2.813ZM22.594 43.78c0 .776.63 1.407 1.406 1.407.775 0 1.406-.632 1.406-1.407s-.63-1.406-1.406-1.406c-.775 0-1.406.631-1.406 1.406Z" fill="#D06565"></path></svg>