<svg xmlns="http://www.w3.org/2000/svg" width="127" height="110" viewBox="0 0 127 110" fill="none"><path d="M11.375 105.693c0-.035.035-.052.104-.052.053 0 .097.008.132.026.052.017.078.043.078.078a24.455 24.455 0 0 0-.236 3.46c0 .14-.035.245-.105.315-.052.052-.157.078-.314.078H.052c-.035 0-.052-.052-.052-.157 0-.105.017-.157.052-.157.664 0 1.145-.044 1.442-.131.314-.088.524-.254.629-.498.122-.262.183-.656.183-1.18V95.341c0-.525-.06-.91-.183-1.154-.105-.244-.315-.41-.63-.498-.296-.104-.777-.157-1.44-.157-.036 0-.053-.052-.053-.157 0-.105.017-.157.052-.157h10.536c.158 0 .236.078.236.236l.053 3.223c0 .053-.044.087-.131.105-.088 0-.14-.026-.158-.079-.052-.926-.332-1.642-.838-2.149-.507-.524-1.18-.786-2.018-.786h-1.6c-.61 0-1.065.052-1.362.157a.962.962 0 0 0-.603.498c-.105.227-.157.577-.157 1.049v5.32h3.197c.84 0 1.433-.14 1.783-.419.367-.28.55-.752.55-1.416 0-.035.052-.052.157-.052.105 0 .158.017.158.052l-.027 2.123c0 .507.01.891.027 1.153l.026 1.258c0 .035-.053.053-.158.053-.104 0-.157-.018-.157-.053 0-.768-.192-1.319-.576-1.651-.367-.332-.988-.498-1.861-.498H4.01v6.028c0 .49.052.848.157 1.075.105.227.297.384.577.472.28.087.716.131 1.31.131h2.097c.839 0 1.538-.297 2.097-.891.559-.594.934-1.416 1.127-2.464ZM38.006 93.218c.052 0 .078.052.078.157 0 .105-.026.157-.078.157-.734 0-1.267.201-1.599.603-.332.402-.498 1.057-.498 1.966v13.812c0 .035-.044.061-.131.078-.087.018-.149.009-.184-.026L23.538 95.367l-.236-.262v11.636c0 .909.158 1.564.472 1.966.332.384.857.577 1.573.577.052 0 .078.052.078.157 0 .105-.026.157-.078.157-.437 0-.769-.009-.996-.026l-1.31-.026-1.337.026a16.7 16.7 0 0 1-1.075.026c-.035 0-.052-.052-.052-.157 0-.105.017-.157.052-.157.752 0 1.284-.193 1.599-.577.314-.402.472-1.057.472-1.966V94.476c-.682-.63-1.372-.944-2.07-.944-.053 0-.08-.052-.08-.157 0-.105.027-.157.08-.157l.969.026c.21.017.498.026.865.026.384 0 .699-.009.943-.026.245-.018.437-.026.577-.026.14 0 .236.034.288.104.07.053.175.184.315.394.21.314.42.602.629.864l10.09 12.397V96.101c0-.909-.157-1.564-.472-1.966-.297-.402-.803-.603-1.52-.603-.035 0-.052-.052-.052-.157 0-.105.017-.157.052-.157l1.023.026c.524.035.952.052 1.284.052.314 0 .751-.017 1.31-.052l1.075-.026ZM56.943 93.873c.053-.088.07-.14.053-.157 0-.035-.062-.053-.184-.053-3.11 0-5.233.053-6.368.157-1.136.088-1.931.315-2.386.682-.454.367-.864 1.057-1.231 2.07 0 .035-.035.053-.105.053a.494.494 0 0 1-.157-.026c-.053-.035-.07-.062-.053-.08l1.048-4.088c0-.017.035-.026.105-.026.175 0 .245.026.21.079a.681.681 0 0 0-.026.21c0 .21.096.349.288.419.21.07.62.105 1.232.105h9.566c.087 0 .149.043.184.13.052.088.052.158 0 .21L48.897 108.89l-.078.158c0 .035.07.052.21.052h6.682c1.171 0 2.062-.244 2.674-.734.611-.489 1.013-1.258 1.205-2.306.018-.035.07-.052.158-.052.087 0 .13.017.13.052l-.366 3.328c0 .053-.026.114-.079.184a.178.178 0 0 1-.157.079c-2.604-.035-6.78-.053-12.528-.053-.087 0-.148-.035-.183-.105a.228.228 0 0 1 .026-.236l10.352-15.384ZM72.504 107.475c0 .524.053.918.157 1.18.105.244.306.41.603.498.315.087.804.131 1.468.131.052 0 .079.052.079.157 0 .105-.027.157-.08.157-.523 0-.943-.009-1.257-.026l-1.86-.026-1.81.026c-.314.017-.742.026-1.284.026-.052 0-.078-.052-.078-.157 0-.105.026-.157.078-.157.664 0 1.145-.044 1.442-.131.314-.088.524-.254.629-.498.122-.262.183-.656.183-1.18V95.341c0-.525-.06-.91-.183-1.154-.105-.244-.315-.41-.63-.498-.296-.104-.777-.157-1.44-.157-.053 0-.08-.052-.08-.157 0-.105.027-.157.08-.157l1.284.026c.733.035 1.336.052 1.808.052.524 0 1.153-.017 1.887-.052l1.232-.026c.052 0 .079.052.079.157 0 .105-.027.157-.08.157-.646 0-1.126.053-1.44.157a1.041 1.041 0 0 0-.63.55c-.104.245-.157.63-.157 1.154v12.082ZM100.863 109.284c.07 0 .105.052.105.157 0 .105-.035.157-.105.157-.332 0-.847-.017-1.546-.052a34.442 34.442 0 0 0-1.52-.053c-.385 0-.874.018-1.468.053-.56.035-.987.052-1.284.052-.07 0-.105-.052-.105-.157 0-.105.035-.157.105-.157.646 0 1.118-.062 1.415-.184.297-.122.445-.332.445-.629 0-.244-.113-.62-.34-1.127l-3.014-6.421h-4.954l-2.254 5.347c-.244.594-.367 1.083-.367 1.467 0 1.031.856 1.547 2.569 1.547.087 0 .13.052.13.157 0 .105-.043.157-.13.157-.315 0-.769-.017-1.363-.052a33.496 33.496 0 0 0-1.73-.053c-.454 0-.978.018-1.572.053-.525.035-.961.052-1.31.052-.088 0-.132-.052-.132-.157 0-.105.044-.157.131-.157.49 0 .9-.088 1.232-.262.35-.193.673-.516.97-.97.314-.472.655-1.145 1.022-2.018l5.53-13.052c.035-.053.096-.079.183-.079.088 0 .14.026.158.079l6.185 13.026c.594 1.292 1.1 2.166 1.52 2.62.42.437.917.656 1.494.656Zm-12.03-8.911h4.456l-2.36-4.98-2.096 4.98ZM125.949 93.218c.052 0 .078.052.078.157 0 .105-.026.157-.078.157-.734 0-1.267.201-1.599.603-.332.402-.498 1.057-.498 1.966v13.812c0 .035-.044.061-.131.078-.087.018-.149.009-.183-.026l-12.057-14.598-.235-.262v11.636c0 .909.157 1.564.471 1.966.332.384.856.577 1.573.577.052 0 .078.052.078.157 0 .105-.026.157-.078.157-.437 0-.769-.009-.996-.026l-1.311-.026-1.336.026a16.72 16.72 0 0 1-1.075.026c-.035 0-.052-.052-.052-.157 0-.105.017-.157.052-.157.752 0 1.284-.193 1.599-.577.315-.402.472-1.057.472-1.966V94.476c-.682-.63-1.372-.944-2.071-.944-.052 0-.078-.052-.078-.157 0-.105.026-.157.078-.157l.97.026c.21.017.498.026.865.026.384 0 .699-.009.943-.026.245-.018.437-.026.577-.026.14 0 .236.034.288.104.07.053.175.184.315.394.209.314.419.602.629.864l10.09 12.397V96.101c0-.909-.157-1.564-.472-1.966-.297-.402-.803-.603-1.52-.603-.035 0-.052-.052-.052-.157 0-.105.017-.157.052-.157l1.023.026c.524.035.952.052 1.284.052.314 0 .751-.017 1.31-.052l1.075-.026ZM71.44 43.747c0-.06.06-.09.179-.09.089 0 .164.015.223.045.09.03.134.075.134.136a42.358 42.358 0 0 0-.402 5.948c0 .24-.06.42-.18.54-.089.09-.268.136-.536.136H52.116c-.06 0-.09-.09-.09-.27 0-.18.03-.27.09-.27 1.133 0 1.953-.076 2.46-.226.537-.15.895-.436 1.074-.856.208-.451.313-1.127.313-2.028V25.947c0-.901-.105-1.562-.313-1.982-.18-.421-.537-.706-1.074-.857-.507-.18-1.327-.27-2.46-.27-.06 0-.09-.09-.09-.27 0-.18.03-.27.09-.27h17.982c.268 0 .402.134.402.405l.09 5.543c0 .09-.075.15-.224.18-.149 0-.239-.045-.268-.135-.09-1.593-.567-2.824-1.432-3.696-.864-.9-2.013-1.352-3.444-1.352h-2.729c-1.043 0-1.819.09-2.326.27-.477.151-.82.436-1.028.857-.18.39-.269.991-.269 1.803v9.148h5.457c1.432 0 2.446-.24 3.042-.721.626-.481.94-1.292.94-2.434 0-.06.089-.09.268-.09.179 0 .268.03.268.09l-.044 3.65c0 .871.014 1.532.044 1.983l.045 2.163c0 .06-.09.09-.268.09-.18 0-.269-.03-.269-.09 0-1.322-.328-2.268-.984-2.839-.626-.57-1.685-.856-3.176-.856H58.87V46.63c0 .842.09 1.458.269 1.848.178.39.506.661.984.811.477.15 1.222.226 2.236.226h3.579c1.431 0 2.624-.511 3.578-1.533.954-1.021 1.596-2.433 1.924-4.236ZM64.244 72.455c14.164 0 26.547-7.42 33.059-18.385l.331.198c-6.579 11.093-19.09 18.6-33.407 18.6-13.69 0-25.73-6.864-32.51-17.16l.328-.259c6.702 10.204 18.627 17.006 32.2 17.006ZM64.227 0c10.088 0 19.28 3.727 26.13 9.808l-.262.281C83.312 4.08 74.214.397 64.227.397c-16.41 0-30.42 9.96-35.683 23.856l-.379-.147C33.495 10.066 47.65 0 64.227 0ZM28.287 49.948c-.862.276-1.776.258-2.604.051a5.225 5.225 0 0 1-2.104-1.104c-1.138-.983-1.69-2.19-1.932-2.914-.155-.466-.31-1.139-.258-1.863.017-.19.051-.431.138-.57.069-.137.275-.223.551-.223.552-.035 1.208.258 1.811.724 1.225.966 2.57 2.19 3.846 3.484.587.62-.5-.897-2.104-2.535a21.608 21.608 0 0 0-1.276-1.225c-.448-.397-.966-.759-1.535-.949a2.544 2.544 0 0 0-.862-.12c-.276.017-.587.086-.81.31a1.187 1.187 0 0 0-.329.638c-.034.173-.051.31-.069.432-.051.482 0 1.224.26 1.983v.017a7.14 7.14 0 0 0 1.172 2.139c.673.862 1.742 1.656 2.88 1.966 1.121.328 2.208.172 2.811-.035.31-.103.5-.206.57-.258.086-.017.034 0-.156.052ZM29.529 48.74a33.76 33.76 0 0 0 2.742-5.812c.673-1.794.983-3.587.276-4.709a1.174 1.174 0 0 0-.552-.43c-.241-.104-.535-.104-.793-.035-.518.155-.914.483-1.242.897a7.72 7.72 0 0 0-1 1.793c-.294.76-.5 1.656-.604 2.622-.104.966-.104 2.018-.035 3.087.035.535.07 1.087.156 1.621.086.535.224 1.087.517 1.518.138.207.19.224.138.138a2.974 2.974 0 0 1-.276-.655c-.224-.69-.207-1.95-.19-3.329.035-1.362.19-2.846.57-4.036.19-.603.413-1.12.655-1.517.242-.397.466-.725.604-.897.155-.173.38-.397.672-.535.293-.138.604-.155.828.104v.017c.259.241.483 1.328.242 2.552-.121.621-.31 1.277-.535 1.95a34.068 34.068 0 0 1-.69 2c-.966 2.535-2.035 4.536-1.483 3.656ZM26.459 43.049c-.638-.224-1.121-.707-1.518-1.208-.397-.5-.707-1.052-1.018-1.552-.293-.5-.569-.966-.758-1.38a6.17 6.17 0 0 1-.38-1.052 3.878 3.878 0 0 1-.086-1.38c.017-.068.034-.137.052-.224a.503.503 0 0 0 .034-.155c0-.017.017-.034.052-.034 0 0 .069.017.172.086.397.241.811.569 1.225.983.828.81 1.604 1.966 2.363 3.087.172.259.12.086-.087-.362a17.07 17.07 0 0 0-1.017-1.863c-.466-.741-1.07-1.5-1.725-2.018-.155-.138-.328-.241-.483-.362-.051-.034-.103-.052-.155-.086a.866.866 0 0 0-.224-.086.58.58 0 0 0-.449.086.784.784 0 0 0-.258.328 2.874 2.874 0 0 0-.07.224c-.034.12-.051.241-.068.328-.07.362-.07.93.086 1.517v.018c.069.327.293 1 .724 1.69.207.345.449.707.707 1.07.26.361.518.724.794 1.051.552.673 1.224 1.121 1.69 1.26.224.068.397.085.466.085.103.018.086 0-.07-.051ZM27.184 41.669c1-1.604 1.932-3.208 2.725-4.605.397-.707.759-1.363 1-1.983.26-.621.414-1.173.5-1.622.052-.276.087-.62.104-.983 0-.19.017-.448-.173-.724-.206-.293-.586-.345-.862-.276-.328.086-.552.345-.724.57-.173.24-.345.482-.518.775-.345.57-.707 1.242-.983 2.018-.586 1.535-.88 3.432-.655 5.26.052.432.069.173.086-.465.035-.638.12-1.673.414-2.76a12.133 12.133 0 0 1 1.294-3.139c.534-.88 1.138-1.69 1.293-1.62.052-.018.104 0 .12.016.018.018.053.052.07.173.017.258 0 .638-.052 1v.017a9.451 9.451 0 0 1-.707 2.225c-.431.966-1.035 2.087-1.535 3.14-1.035 2.017-1.845 3.725-1.397 2.983ZM101.829 45.86c.414-.155.759-.431 1.07-.724.31-.294.586-.621.862-.932.552-.62 1.104-1.242 1.604-1.897s.931-1.328 1.276-2.052c.345-.725.587-1.5.535-2.294-.017-.19-.017-.414-.155-.656a.631.631 0 0 0-.362-.293c-.156-.051-.294-.034-.397-.034a3.66 3.66 0 0 0-1.069.327c-.656.328-1.139.794-1.518 1.277-.759.966-1.087 1.983-1.294 2.742-.258.966-.414 2.311-.655 3.69-.035.19-.069.398-.138.536-.035.069-.069.12-.086.12-.018 0-.018.017-.069-.017-.104-.069-.294-.293-.466-.5a21.804 21.804 0 0 1-.517-.655c-.69-.915-1.38-2.07-1.708-3.45a7.002 7.002 0 0 1-.155-2.173c.052-.38.12-.759.259-1.104a.906.906 0 0 1 .327-.431.516.516 0 0 1 .5 0c.173.086.328.207.466.362.138.138.276.293.414.449.259.31.5.655.69 1.017.414.724.69 1.518.828 2.346.052.396.069.465.086.293 0-.172-.017-.587-.138-1.19a7.019 7.019 0 0 0-.862-2.121 6.074 6.074 0 0 0-.897-1.139c-.19-.172-.431-.396-.81-.431a.897.897 0 0 0-.553.155c-.155.104-.241.242-.327.38-.156.276-.225.552-.293.81-.07.276-.121.552-.139.828a6.91 6.91 0 0 0 .052 1.69c.173 1.104.604 2.139 1.104 3.001.517.863 1.052 1.57 1.552 2.174.069.086.173.172.293.24.121.07.328.122.483.07a.662.662 0 0 0 .38-.242c.086-.103.138-.19.172-.275.138-.363.138-.57.19-.777.155-.81.293-2.07.604-3.38v-.035c.086-.362.241-.93.534-1.569.294-.638.759-1.38 1.501-1.932a2.99 2.99 0 0 1 1.259-.569c.121-.034.207-.017.241 0 .035.017.087.086.121.19.052.19.069.466.052.724-.052 1.018-.552 2-1.07 2.88-.534.88-1.138 1.656-1.673 2.346-.551.673-1 1.294-1.448 1.673a2.646 2.646 0 0 1-.983.587c-.087.034-.104.034-.052.034.069 0 .19 0 .379-.069ZM102.881 34.667a30.867 30.867 0 0 0 2.415-4.347c.327-.741.655-1.448.862-2.242.103-.396.155-.793.121-1.207a2.396 2.396 0 0 0-.138-.604 1.327 1.327 0 0 0-.156-.31.64.64 0 0 0-.362-.259c-.138-.034-.258-.034-.362-.034a1.09 1.09 0 0 0-.328.051 1.708 1.708 0 0 0-.569.26 2.729 2.729 0 0 0-.776.827c-.362.62-.517 1.259-.655 1.828a12.133 12.133 0 0 0-.276 2.95c.017.482.069 1.069.103 1.672 0 .156.018.31.018.466 0 .155.017.345 0 .448-.018.104-.018.07-.052.087-.052.017-.19-.017-.311-.087-.621-.362-1.345-1.017-1.949-1.966-.603-.948-1.069-2.19-1.38-3.57a10.655 10.655 0 0 1-.206-1.07c-.052-.361-.087-.723 0-1.051.034-.087.034-.121.086-.173.052-.034.12-.051.172-.017.121.035.276.19.397.328.276.276.535.569.793.88a15.971 15.971 0 0 1 2.501 4.19c.138.363.19.432.138.276a10.19 10.19 0 0 0-.362-1.103c-.414-1.104-1.293-2.829-2.69-4.399-.087-.103-.173-.19-.277-.293a1.827 1.827 0 0 0-.19-.155.819.819 0 0 0-.327-.138.605.605 0 0 0-.603.328c-.07.12-.07.172-.104.258-.017.07-.035.156-.052.225-.086.62.052 1.155.138 1.69.19 1.052.466 2.104.863 3.018.396.914.896 1.708 1.431 2.277.259.293.518.517.759.707.259.19.431.328.673.431.12.052.258.104.431.104a.7.7 0 0 0 .586-.294c.138-.207.138-.413.138-.552 0-.155 0-.293-.017-.43-.017-.604-.086-1.242-.138-1.915v-.035c-.017-.379-.035-.948.034-1.655.069-.707.207-1.587.518-2.45.155-.43.397-.827.759-1.103.172-.138.379-.242.603-.259a.725.725 0 0 1 .276 0c.052.017.104.086.156.19.206.431.224.948.12 1.448-.086.5-.276.984-.448 1.466a35.488 35.488 0 0 1-2.087 4.605c-.483.95-.724 1.346-.276.708ZM98.276 20.507a5.694 5.694 0 0 1-1.724-.794 5.67 5.67 0 0 1-.966-.896c-.104-.121-.242-.328-.259-.483-.017-.07.017-.173.104-.225.103-.069.379-.034.62.052.518.224 1.173.535 1.829.776.31.121-.259-.31-.966-.81-.19-.121-.345-.242-.57-.38-.223-.12-.448-.224-.724-.259a.93.93 0 0 0-.43.052.623.623 0 0 0-.346.276c-.155.207-.172.431-.155.552.017.259.173.57.38.81.103.139.362.397.706.639.346.241.794.466 1.225.604.88.276 1.604.155 1.276.086ZM99.484 20.283c.534-.673.879-1.484 1.052-2.208.086-.362.138-.707.172-1 .035-.294 0-.621-.052-.828a1.402 1.402 0 0 0-.206-.483c-.104-.173-.311-.397-.621-.414a.774.774 0 0 0-.5.12 1.256 1.256 0 0 0-.363.38 3.334 3.334 0 0 0-.38.983c-.189.725-.189 1.604.07 2.38.138.363-.017-.465.172-1.414.087-.483.276-.983.483-1.363.104-.19.207-.327.293-.379.07-.052.104-.034.138-.034.018 0 .07.017.121.086.052.069.12.19.155.31.138.259.087 1.483-.155 2.467-.224.948-.62 1.707-.38 1.397Z" fill="#fff"></path></svg>