<svg xmlns="http://www.w3.org/2000/svg" width="174" height="49" fill="none"><path d="M0 23.817v-.73l2.512-.162V1.558L0 1.395v-.73h16.066l.163 6.603h-.685a16.957 16.957 0 0 0-.425-1.865 7.738 7.738 0 0 0-.62-1.558c-.271-.52-.592-.93-.962-1.233-.358-.314-.826-.568-1.402-.762-.566-.195-1.223-.292-1.974-.292-.924 0-2.082.054-3.474.162v9.637c.326.032.919.049 1.778.049 1.142 0 1.957-.276 2.447-.828.489-.562.733-1.58.733-3.05h.898v8.712h-.897c0-1.47-.25-2.493-.75-3.066-.49-.584-1.3-.876-2.431-.876-.837 0-1.43.016-1.778.049v10.415c1.392.108 2.773.163 4.143.163.642 0 1.207-.05 1.696-.146a3.74 3.74 0 0 0 1.272-.52c.36-.238.664-.503.914-.795.25-.302.467-.686.652-1.151.196-.466.354-.93.473-1.396a28.9 28.9 0 0 0 .375-1.72h.702l-.18 6.62H0ZM31.528 1.395v-.73h3.49l13.995 16.873h.032l-.228-15.98-2.495-.163v-.73h6.034v.73l-2.512.163.18 22.583h-.995L35.035 7.22h-.033l.229 15.705 2.495.162v.73h-6.035v-.73l2.512-.162-.18-21.367-2.495-.163ZM66.873 8.274l.506-7.609h15.135v.86L71.244 22.99l6.214.098h.066a3.724 3.724 0 0 0 1.728-.438 4.246 4.246 0 0 0 1.322-1.152c.358-.476.668-1.07.93-1.785.271-.724.478-1.433.619-2.125.152-.703.283-1.493.391-2.369h.734l-.505 8.599H66.922v-.892L78.779 1.46l-5.496.098c-1.718.032-3.007.589-3.866 1.67-.859 1.071-1.462 2.753-1.81 5.046h-.734ZM97.749 23.817v-.73l2.511-.162V1.558l-2.511-.163v-.73h9.199v.73l-2.512.163v21.367l2.512.162v.73h-9.2ZM119.899 23.817v-.73l1.973-.162L129.587 0h.734l7.975 22.925 2.153.162v.73h-8.726v-.73l2.202-.162-1.924-5.825h-7.307l-1.892 5.825 2.202.162v.73h-5.105Zm5.088-7.69 6.655-.13-3.262-9.962h-.065l-3.328 10.092ZM153.172 1.395v-.73h3.49l13.994 16.873h.033l-.228-15.98-2.496-.163v-.73H174v.73l-2.512.163.18 22.583h-.995L156.679 7.22h-.033l.228 15.705 2.496.162v.73h-6.035v-.73l2.512-.162-.18-21.367-2.495-.163Z" fill="#fff"></path><path d="M3.896 49c-.471 0-.898-.103-1.28-.308a2.337 2.337 0 0 1-.89-.858 2.385 2.385 0 0 1-.323-1.233c0-.456.108-.864.324-1.226.215-.367.514-.653.896-.858.382-.21.808-.315 1.28-.315.368 0 .705.063 1.01.188.306.12.566.301.782.542l-.438.422a1.761 1.761 0 0 0-1.327-.556c-.35 0-.667.078-.95.235a1.722 1.722 0 0 0-.667.65 1.804 1.804 0 0 0-.236.918c0 .34.079.648.236.925.162.272.384.487.667.643.283.156.6.235.95.235.525 0 .968-.188 1.327-.563l.438.422a2.09 2.09 0 0 1-.788.55 2.642 2.642 0 0 1-1.01.187Z" fill="url(#a)"></path><path d="M17.174 49c-.476 0-.905-.103-1.286-.308a2.359 2.359 0 0 1-.903-.865 2.372 2.372 0 0 1-.323-1.226c0-.451.107-.86.323-1.226a2.31 2.31 0 0 1 .903-.858c.381-.21.81-.315 1.286-.315.472 0 .899.105 1.28.315.382.205.68.491.896.858.216.361.324.77.324 1.226 0 .456-.108.867-.324 1.233a2.324 2.324 0 0 1-.896.858 2.657 2.657 0 0 1-1.28.308Zm0-.596c.346 0 .656-.079.93-.235.279-.156.496-.37.654-.643A1.8 1.8 0 0 0 19 46.6c0-.34-.08-.646-.242-.918a1.687 1.687 0 0 0-.654-.65 1.841 1.841 0 0 0-.93-.235c-.346 0-.66.078-.943.235a1.735 1.735 0 0 0-.66.65 1.804 1.804 0 0 0-.236.918c0 .34.079.648.236.925.162.272.382.487.66.643.283.156.597.235.943.235Z" fill="url(#b)"></path><path d="M30.566 49c-.355 0-.698-.054-1.03-.16-.329-.113-.587-.256-.775-.43l.249-.522c.18.16.409.292.687.395.283.098.573.147.869.147.39 0 .683-.064.876-.194a.617.617 0 0 0 .29-.53.5.5 0 0 0-.162-.388 1.003 1.003 0 0 0-.39-.234 6.85 6.85 0 0 0-.654-.181 6.984 6.984 0 0 1-.863-.255 1.47 1.47 0 0 1-.559-.389c-.153-.178-.229-.417-.229-.717 0-.25.065-.476.195-.677.135-.2.337-.361.607-.482.27-.12.604-.181 1.003-.181.279 0 .553.036.822.107.27.072.501.174.694.308l-.222.537a2.361 2.361 0 0 0-.633-.282 2.298 2.298 0 0 0-.66-.1c-.382 0-.67.069-.863.207a.638.638 0 0 0-.283.536c0 .161.054.293.162.396.108.098.24.176.397.234.162.054.38.112.654.174.355.085.64.17.855.255.216.085.4.215.553.389.157.174.236.409.236.703 0 .246-.068.472-.202.677-.135.201-.34.362-.613.483-.274.116-.611.174-1.011.174Z" fill="url(#c)"></path><path d="m46.236 48.946-.006-3.417-1.705 2.848h-.31l-1.704-2.828v3.397h-.647v-4.69h.553l1.967 3.297 1.94-3.297h.552l.007 4.69h-.647Z" fill="url(#d)"></path><path d="M60.209 48.363v.583h-3.422v-4.69h3.328v.583H57.46v1.44h2.365v.57H57.46v1.514h2.749Z" fill="url(#e)"></path><path d="M70.725 44.839h-1.617v-.584h3.9v.584h-1.617v4.107h-.666V44.84Z" fill="url(#f)"></path><path d="M82.23 44.255h.674v4.691h-.674v-4.69Z" fill="url(#g)"></path><path d="M94.913 49c-.472 0-.898-.103-1.28-.308a2.337 2.337 0 0 1-.89-.858 2.386 2.386 0 0 1-.323-1.233c0-.456.108-.864.324-1.226.215-.367.514-.653.896-.858.381-.21.808-.315 1.28-.315.368 0 .705.063 1.01.188.305.12.566.301.782.542l-.438.422a1.761 1.761 0 0 0-1.327-.556c-.35 0-.667.078-.95.235a1.722 1.722 0 0 0-.667.65 1.804 1.804 0 0 0-.236.918c0 .34.079.648.236.925.161.272.384.487.667.643.283.156.6.235.95.235.525 0 .967-.188 1.327-.563l.438.422a2.09 2.09 0 0 1-.789.55 2.641 2.641 0 0 1-1.01.187Z" fill="url(#h)"></path><path d="M117.833 49c-.355 0-.699-.054-1.031-.16-.328-.113-.586-.256-.775-.43l.25-.522c.179.16.408.292.687.395.283.098.572.147.869.147.391 0 .682-.064.876-.194a.616.616 0 0 0 .289-.53c0-.16-.054-.29-.161-.388a1.01 1.01 0 0 0-.391-.234 6.884 6.884 0 0 0-.654-.181 7.02 7.02 0 0 1-.862-.255 1.472 1.472 0 0 1-.559-.389c-.153-.178-.229-.417-.229-.717 0-.25.065-.476.195-.677.135-.2.337-.361.607-.482.269-.12.604-.181 1.003-.181.279 0 .553.036.822.107.27.072.501.174.694.308l-.222.537a2.373 2.373 0 0 0-.633-.282 2.304 2.304 0 0 0-.661-.1c-.381 0-.669.069-.862.207a.637.637 0 0 0-.283.536c0 .161.054.293.162.396a1.2 1.2 0 0 0 .397.234c.162.054.38.112.654.174.355.085.64.17.855.255.216.085.4.215.553.389.157.174.236.409.236.703 0 .246-.068.472-.203.677-.134.201-.339.362-.613.483-.274.116-.61.174-1.01.174Z" fill="url(#i)"></path><path d="M130.002 44.839h-1.617v-.584h3.9v.584h-1.616v4.107h-.667V44.84Z" fill="url(#j)"></path><path d="M143.571 49a2.67 2.67 0 0 1-1.287-.308 2.357 2.357 0 0 1-.903-.865 2.378 2.378 0 0 1-.323-1.226c0-.451.108-.86.323-1.226.22-.367.521-.653.903-.858.382-.21.81-.315 1.287-.315.471 0 .898.105 1.28.315.381.205.68.491.896.858.215.361.323.77.323 1.226 0 .456-.108.867-.323 1.233a2.332 2.332 0 0 1-.896.858 2.66 2.66 0 0 1-1.28.308Zm0-.596c.345 0 .655-.079.929-.235.279-.156.496-.37.654-.643.161-.277.242-.586.242-.925 0-.34-.081-.646-.242-.918a1.69 1.69 0 0 0-.654-.65 1.841 1.841 0 0 0-.929-.235 1.92 1.92 0 0 0-.944.235 1.74 1.74 0 0 0-.66.65 1.806 1.806 0 0 0-.236.918c0 .34.079.648.236.925.162.272.382.487.66.643.283.156.598.235.944.235Z" fill="url(#k)"></path><path d="m158.741 48.946-1.018-1.44a4.359 4.359 0 0 1-.296.013h-1.165v1.427h-.674v-4.69h1.839c.611 0 1.091.145 1.442.435.35.29.525.69.525 1.2 0 .361-.09.67-.269.924-.18.255-.436.44-.768.557l1.118 1.574h-.734Zm-1.334-1.997c.427 0 .752-.091.977-.274.224-.183.337-.445.337-.784 0-.34-.113-.599-.337-.778-.225-.183-.55-.274-.977-.274h-1.145v2.11h1.145Z" fill="url(#l)"></path><path d="M172.393 48.363v.583h-3.422v-4.69h3.328v.583h-2.654v1.44h2.364v.57h-2.364v1.514h2.748Z" fill="url(#m)"></path><path stroke="#fff" d="M1.123 33.369h74.385M98.525 33.369h74.386"></path><path d="M90.444 29.793a.154.154 0 0 0-.284-.032v.001c0 .004-.777 1.502-3.16 1.763-.31.033-.614.114-.9.24a2.497 2.497 0 0 0-1.2 1.094c-.25.458-.353.98-.296 1.498.041.378.168.741.37 1.063-.423.302-1.765 1.347-1.886 2.468a.153.153 0 0 0 .305.032c.11-1 1.37-1.971 1.763-2.252.471.575 1.177.9 1.934.953.51.033 1.02-.053 1.491-.252.51-.213.961-.546 1.314-.97.908-1.095 1.34-2.935.549-5.606Zm-5.2 5.476a2.178 2.178 0 0 1-.332-.944 2.257 2.257 0 0 1 .254-1.322c.234-.43.607-.768 1.058-.963.257-.111.531-.182.81-.21 1.573-.17 2.498-.866 2.976-1.37a6.445 6.445 0 0 1-1.414 2.472l-.093-.933a.153.153 0 0 0-.161-.143.153.153 0 0 0-.144.173l.12 1.199c-.712.718-1.701 1.44-3.074 2.041Zm4.414-.066a3.11 3.11 0 0 1-1.195.888c-.428.18-.892.257-1.355.226a2.427 2.427 0 0 1-1.68-.798c.505-.222.993-.48 1.461-.772l1.345.253a.152.152 0 0 0 .055-.3l-1.034-.194a8.918 8.918 0 0 0 1.347-1.13c1.068-1.107 1.523-2.201 1.712-2.875.524 2.22.123 3.764-.656 4.702Z" fill="#fff"></path><defs><linearGradient id="a" x1="86.974" y1="43.222" x2="86.974" y2="49.784" gradientUnits="userSpaceOnUse"><stop stop-color="#fff"></stop><stop offset="1" stop-color="#fff" stop-opacity="0"></stop></linearGradient><linearGradient id="b" x1="86.974" y1="43.222" x2="86.974" y2="49.784" gradientUnits="userSpaceOnUse"><stop stop-color="#fff"></stop><stop offset="1" stop-color="#fff" stop-opacity="0"></stop></linearGradient><linearGradient id="c" x1="86.974" y1="43.222" x2="86.974" y2="49.784" gradientUnits="userSpaceOnUse"><stop stop-color="#fff"></stop><stop offset="1" stop-color="#fff" stop-opacity="0"></stop></linearGradient><linearGradient id="d" x1="86.974" y1="43.222" x2="86.974" y2="49.784" gradientUnits="userSpaceOnUse"><stop stop-color="#fff"></stop><stop offset="1" stop-color="#fff" stop-opacity="0"></stop></linearGradient><linearGradient id="e" x1="86.974" y1="43.222" x2="86.974" y2="49.784" gradientUnits="userSpaceOnUse"><stop stop-color="#fff"></stop><stop offset="1" stop-color="#fff" stop-opacity="0"></stop></linearGradient><linearGradient id="f" x1="86.974" y1="43.222" x2="86.974" y2="49.784" gradientUnits="userSpaceOnUse"><stop stop-color="#fff"></stop><stop offset="1" stop-color="#fff" stop-opacity="0"></stop></linearGradient><linearGradient id="g" x1="86.974" y1="43.222" x2="86.974" y2="49.784" gradientUnits="userSpaceOnUse"><stop stop-color="#fff"></stop><stop offset="1" stop-color="#fff" stop-opacity="0"></stop></linearGradient><linearGradient id="h" x1="86.974" y1="43.222" x2="86.974" y2="49.784" gradientUnits="userSpaceOnUse"><stop stop-color="#fff"></stop><stop offset="1" stop-color="#fff" stop-opacity="0"></stop></linearGradient><linearGradient id="i" x1="86.974" y1="43.222" x2="86.974" y2="49.784" gradientUnits="userSpaceOnUse"><stop stop-color="#fff"></stop><stop offset="1" stop-color="#fff" stop-opacity="0"></stop></linearGradient><linearGradient id="j" x1="86.974" y1="43.222" x2="86.974" y2="49.784" gradientUnits="userSpaceOnUse"><stop stop-color="#fff"></stop><stop offset="1" stop-color="#fff" stop-opacity="0"></stop></linearGradient><linearGradient id="k" x1="86.974" y1="43.222" x2="86.974" y2="49.784" gradientUnits="userSpaceOnUse"><stop stop-color="#fff"></stop><stop offset="1" stop-color="#fff" stop-opacity="0"></stop></linearGradient><linearGradient id="l" x1="86.974" y1="43.222" x2="86.974" y2="49.784" gradientUnits="userSpaceOnUse"><stop stop-color="#fff"></stop><stop offset="1" stop-color="#fff" stop-opacity="0"></stop></linearGradient><linearGradient id="m" x1="86.974" y1="43.222" x2="86.974" y2="49.784" gradientUnits="userSpaceOnUse"><stop stop-color="#fff"></stop><stop offset="1" stop-color="#fff" stop-opacity="0"></stop></linearGradient></defs></svg>