<?xml version="1.0" encoding="utf-8"?>
<!-- Generator: Adobe Illustrator 28.3.0, SVG Export Plug-In . SVG Version: 6.00 Build 0)  -->
<svg version="1.1" id="Capa_1" xmlns="http://www.w3.org/2000/svg" xmlns:xlink="http://www.w3.org/1999/xlink" x="0px" y="0px"
	 viewBox="0 0 101 85" style="enable-background:new 0 0 101 85;" xml:space="preserve">
<style type="text/css">
	.st0{fill:#FFFFFF;}
</style>
<path class="st0" d="M59.2,51c0-0.1,0.1-0.1,0.2-0.1c0.1,0,0.2,0,0.3,0.1c0.1,0,0.2,0.1,0.2,0.2c-0.3,2.3-0.5,4.6-0.5,6.9
	c0,0.3-0.1,0.5-0.2,0.6c-0.1,0.1-0.3,0.2-0.6,0.2H36.7c-0.1,0-0.1-0.1-0.1-0.3c0-0.2,0-0.3,0.1-0.3c1.3,0,2.3-0.1,2.9-0.3
	c0.6-0.2,1-0.5,1.3-1c0.2-0.5,0.4-1.3,0.4-2.4V30.3c0-1.1-0.1-1.8-0.4-2.3c-0.2-0.5-0.6-0.8-1.3-1c-0.6-0.2-1.5-0.3-2.9-0.3
	c-0.1,0-0.1-0.1-0.1-0.3c0-0.2,0-0.3,0.1-0.3h21c0.3,0,0.5,0.2,0.5,0.5l0.1,6.5c0,0.1-0.1,0.2-0.3,0.2c-0.2,0-0.3-0.1-0.3-0.2
	c-0.1-1.9-0.7-3.3-1.7-4.3c-1-1.1-2.4-1.6-4-1.6h-3.2c-1.2,0-2.1,0.1-2.7,0.3c-0.6,0.2-1,0.5-1.2,1c-0.2,0.5-0.3,1.2-0.3,2.1v10.7
	h6.4c1.7,0,2.9-0.3,3.6-0.8c0.7-0.6,1.1-1.5,1.1-2.8c0-0.1,0.1-0.1,0.3-0.1s0.3,0,0.3,0.1l-0.1,4.3c0,1,0,1.8,0.1,2.3l0.1,2.5
	c0,0.1-0.1,0.1-0.3,0.1c-0.2,0-0.3,0-0.3-0.1c0-1.5-0.4-2.6-1.2-3.3c-0.7-0.7-2-1-3.7-1h-6.2v12.1c0,1,0.1,1.7,0.3,2.2
	c0.2,0.5,0.6,0.8,1.2,0.9c0.6,0.2,1.4,0.3,2.6,0.3h4.2c1.7,0,3.1-0.6,4.2-1.8C58.1,54.8,58.9,53.1,59.2,51L59.2,51z M50.8,84.5
	c16.5,0,31-8.7,38.6-21.4l0.4,0.2C82.2,76.2,67.5,85,50.8,85c-16,0-30.1-8-38-20l0.4-0.3C21,76.6,35,84.5,50.8,84.5L50.8,84.5z
	 M50.8,0c11.8,0,22.5,4.3,30.5,11.4L81,11.8c-7.9-7-18.6-11.3-30.2-11.3c-19.2,0-35.5,11.6-41.7,27.8l-0.4-0.2
	C14.9,11.7,31.4,0,50.8,0z M8.8,58.3c-1,0.3-2.1,0.3-3,0.1C4.9,58.1,4,57.6,3.3,57c-1.3-1.1-2-2.6-2.3-3.4c-0.2-0.5-0.4-1.3-0.3-2.2
	c0-0.2,0.1-0.5,0.2-0.7c0.1-0.2,0.3-0.3,0.6-0.3c0.6,0,1.4,0.3,2.1,0.8c1.4,1.1,3,2.6,4.5,4.1c0.7,0.7-0.6-1-2.5-3
	c-0.5-0.5-1-1-1.5-1.4c-0.5-0.5-1.1-0.9-1.8-1.1c-0.3-0.1-0.7-0.2-1-0.1c-0.3,0-0.7,0.1-0.9,0.4c-0.2,0.2-0.3,0.5-0.4,0.7
	c0,0.2-0.1,0.4-0.1,0.5C0,52,0,52.9,0.3,53.7v0c0.3,0.9,0.8,1.7,1.4,2.5c0.8,1,2,1.9,3.4,2.3c1.3,0.4,2.6,0.2,3.3,0
	c0.4-0.1,0.6-0.2,0.7-0.3C9.1,58.2,9,58.2,8.8,58.3L8.8,58.3z M10.3,56.9c1.3-2.2,2.4-4.4,3.2-6.8c0.8-2.1,1.1-4.2,0.3-5.5
	c-0.2-0.2-0.4-0.4-0.6-0.5c-0.3-0.1-0.6-0.1-0.9,0c-0.6,0.2-1.1,0.6-1.5,1c-0.5,0.6-0.9,1.3-1.2,2.1c-0.3,0.9-0.6,1.9-0.7,3.1
	c-0.1,1.1-0.1,2.4,0,3.6c0,0.6,0.1,1.3,0.2,1.9c0.1,0.6,0.3,1.3,0.6,1.8c0.2,0.2,0.2,0.3,0.2,0.2c-0.1-0.1-0.2-0.4-0.3-0.8
	c-0.3-0.8-0.2-2.3-0.2-3.9c0-1.6,0.2-3.3,0.7-4.7c0.2-0.7,0.5-1.3,0.8-1.8c0.3-0.5,0.5-0.8,0.7-1c0.2-0.2,0.4-0.5,0.8-0.6
	c0.3-0.2,0.7-0.2,1,0.1v0c0.3,0.3,0.6,1.5,0.3,3c-0.2,0.8-0.4,1.5-0.6,2.3c-0.2,0.8-0.5,1.6-0.8,2.3C10.9,55.5,9.6,57.9,10.3,56.9z
	 M6.7,50.2c-0.7-0.3-1.3-0.8-1.8-1.4c-0.5-0.6-0.8-1.2-1.2-1.8c-0.3-0.6-0.7-1.1-0.9-1.6c-0.2-0.4-0.3-0.8-0.4-1.2
	c-0.1-0.4-0.2-1-0.1-1.6c0-0.1,0-0.2,0.1-0.3c0-0.1,0-0.1,0-0.2c0,0,0,0,0.1,0c0,0,0.1,0,0.2,0.1c0.5,0.3,0.9,0.7,1.4,1.1
	c1,0.9,1.9,2.3,2.8,3.6C7.1,47.2,7,47,6.8,46.5C6.4,45.7,6,45,5.6,44.3c-0.5-0.9-1.2-1.8-2-2.4c-0.2-0.2-0.4-0.3-0.6-0.4
	c-0.1,0-0.1-0.1-0.2-0.1c-0.1,0-0.2-0.1-0.3-0.1c-0.2,0-0.4,0-0.5,0.1c-0.1,0.1-0.2,0.2-0.3,0.4c0,0.1-0.1,0.2-0.1,0.3
	c0,0.1-0.1,0.3-0.1,0.4c-0.1,0.4-0.1,1.1,0.1,1.8v0c0.1,0.4,0.3,1.2,0.8,2c0.2,0.4,0.5,0.8,0.8,1.2c0.3,0.4,0.6,0.8,0.9,1.2
	c0.6,0.8,1.4,1.3,2,1.5C6.5,50.3,6.7,50.3,6.7,50.2C6.9,50.3,6.9,50.3,6.7,50.2L6.7,50.2z M7.5,48.6c1.1-1.8,2.2-3.6,3.2-5.4
	c0.5-0.8,0.9-1.6,1.2-2.3c0.3-0.6,0.5-1.2,0.6-1.9c0.1-0.3,0.1-0.7,0.1-1.1c0-0.2,0-0.5-0.2-0.8c-0.2-0.3-0.7-0.4-1-0.3
	c-0.4,0.1-0.6,0.4-0.8,0.7c-0.2,0.3-0.4,0.6-0.6,0.9c-0.4,0.7-0.8,1.4-1.1,2.4c-0.7,1.8-1,4-0.8,6.1c0.1,0.5,0.1,0.2,0.1-0.5
	c0-0.7,0.1-2,0.5-3.2c0.3-1.3,0.8-2.5,1.5-3.7c0.6-1,1.3-2,1.5-1.9c0.1,0,0.1,0,0.1,0s0.1,0.1,0.1,0.2c0,0.3,0,0.7-0.1,1.2v0
	c-0.1,0.5-0.3,1.5-0.8,2.6c-0.5,1.1-1.2,2.4-1.8,3.7C8,47.5,7,49.5,7.5,48.6L7.5,48.6z M94.7,53.5c0.5-0.2,0.9-0.5,1.2-0.8
	c0.4-0.3,0.7-0.7,1-1.1c0.6-0.7,1.3-1.4,1.9-2.2c0.6-0.7,1.1-1.5,1.5-2.4c0.4-0.8,0.7-1.8,0.6-2.7c0-0.2,0-0.5-0.2-0.8
	c-0.1-0.2-0.2-0.3-0.4-0.3c-0.2-0.1-0.3,0-0.5,0c-0.4,0.1-0.9,0.2-1.2,0.4c-0.8,0.4-1.3,0.9-1.8,1.5c-0.9,1.1-1.3,2.3-1.5,3.2
	c-0.3,1.1-0.5,2.7-0.8,4.3c0,0.2-0.1,0.5-0.2,0.6c0,0.1-0.1,0.1-0.1,0.1s0,0-0.1,0c-0.1-0.1-0.3-0.3-0.5-0.6
	c-0.2-0.3-0.4-0.5-0.6-0.8c-0.8-1.1-1.6-2.4-2-4c-0.2-0.8-0.3-1.7-0.2-2.5c0.1-0.4,0.1-0.9,0.3-1.3c0.1-0.2,0.2-0.4,0.4-0.5
	c0.2-0.1,0.4-0.1,0.6,0c0.2,0.1,0.4,0.2,0.5,0.4c0.2,0.2,0.3,0.3,0.5,0.5c0.3,0.4,0.6,0.8,0.8,1.2c0.5,0.8,0.8,1.8,1,2.7
	c0.1,0.5,0.1,0.5,0.1,0.3c0-0.2,0-0.7-0.2-1.4c-0.2-0.9-0.5-1.7-1-2.5c-0.3-0.5-0.6-0.9-1-1.3c-0.2-0.2-0.5-0.5-0.9-0.5
	c-0.2,0-0.5,0.1-0.6,0.2s-0.3,0.3-0.4,0.4c-0.2,0.3-0.3,0.6-0.3,0.9c-0.1,0.3-0.1,0.6-0.2,1c-0.1,0.7,0,1.3,0.1,2
	c0.2,1.3,0.7,2.5,1.3,3.5c0.5,0.9,1.1,1.7,1.8,2.5c0.1,0.1,0.2,0.2,0.3,0.3c0.1,0.1,0.4,0.1,0.6,0.1c0.2,0,0.3-0.1,0.4-0.3
	c0.1-0.1,0.2-0.2,0.2-0.3c0.2-0.4,0.2-0.7,0.2-0.9c0.2-0.9,0.3-2.4,0.7-3.9v0c0.1-0.4,0.3-1.1,0.6-1.8c0.3-0.7,0.9-1.6,1.8-2.3
	c0.4-0.3,0.9-0.6,1.5-0.7c0.1,0,0.2,0,0.3,0s0.1,0.1,0.1,0.2c0.1,0.2,0.1,0.5,0.1,0.8c-0.1,1.2-0.6,2.3-1.2,3.4
	c-0.6,1-1.3,1.9-2,2.7c-0.6,0.8-1.2,1.5-1.7,2c-0.3,0.3-0.7,0.5-1.1,0.7c-0.1,0-0.1,0-0.1,0C94.4,53.6,94.5,53.6,94.7,53.5
	L94.7,53.5z M96,40.4c1.1-1.6,2-3.3,2.8-5.1c0.4-0.9,0.8-1.7,1-2.6c0.1-0.5,0.2-0.9,0.1-1.4c0-0.2-0.1-0.5-0.2-0.7
	c0-0.1-0.1-0.2-0.2-0.4c-0.1-0.1-0.3-0.3-0.4-0.3c-0.2,0-0.3,0-0.4,0s-0.3,0-0.4,0.1c-0.2,0.1-0.5,0.2-0.7,0.3
	c-0.4,0.3-0.7,0.6-0.9,1c-0.4,0.7-0.6,1.5-0.8,2.1c-0.2,1.1-0.4,2.3-0.3,3.4c0,0.6,0.1,1.2,0.1,2c0,0.2,0,0.4,0,0.5s0,0.4,0,0.5
	c0,0.1,0,0.1-0.1,0.1c-0.1,0-0.2,0-0.4-0.1c-0.7-0.4-1.6-1.2-2.3-2.3c-0.7-1.1-1.2-2.6-1.6-4.2c-0.1-0.4-0.2-0.8-0.2-1.2
	c-0.1-0.4-0.1-0.8,0-1.2c0-0.1,0-0.1,0.1-0.2c0.1,0,0.1-0.1,0.2,0c0.1,0,0.3,0.2,0.5,0.4c0.3,0.3,0.6,0.7,0.9,1
	c1.2,1.5,2.2,3.1,2.9,4.9c0.2,0.4,0.2,0.5,0.2,0.3c0-0.2-0.2-0.6-0.4-1.3c-0.5-1.3-1.5-3.3-3.1-5.1c-0.1-0.1-0.2-0.2-0.3-0.3
	c-0.1-0.1-0.1-0.1-0.2-0.2c-0.1-0.1-0.2-0.1-0.4-0.2c-0.3,0-0.6,0.1-0.7,0.4c-0.1,0.1-0.1,0.2-0.1,0.3c0,0.1,0,0.2-0.1,0.3
	c-0.1,0.7,0.1,1.3,0.2,2c0.2,1.2,0.5,2.5,1,3.5c0.5,1.1,1,2,1.7,2.7c0.3,0.3,0.6,0.6,0.9,0.8c0.3,0.2,0.5,0.4,0.8,0.5
	c0.1,0.1,0.3,0.1,0.5,0.1c0.2,0,0.5-0.1,0.7-0.3c0.2-0.2,0.2-0.5,0.2-0.6c0-0.2,0-0.3,0-0.5c0-0.7-0.1-1.4-0.2-2.2v0
	c0-0.4,0-1.1,0-1.9c0.1-0.8,0.2-1.8,0.6-2.9c0.2-0.5,0.5-1,0.9-1.3c0.2-0.2,0.4-0.3,0.7-0.3c0.1,0,0.3,0,0.3,0s0.1,0.1,0.2,0.2
	c0.2,0.5,0.3,1.1,0.1,1.7c-0.1,0.6-0.3,1.1-0.5,1.7c-0.7,1.8-1.5,3.6-2.4,5.4C95.7,40.7,95.5,41.2,96,40.4L96,40.4z M90.6,23.9
	c-0.8-0.2-1.5-0.6-2-0.9c-0.4-0.3-0.8-0.7-1.1-1c-0.1-0.1-0.3-0.4-0.3-0.6c0-0.1,0-0.2,0.1-0.3c0.1-0.1,0.4,0,0.7,0.1
	c0.6,0.3,1.4,0.6,2.1,0.9c0.4,0.1-0.3-0.4-1.1-0.9c-0.2-0.1-0.4-0.3-0.7-0.4c-0.3-0.1-0.5-0.3-0.8-0.3c-0.2,0-0.3,0-0.5,0.1
	c-0.2,0.1-0.3,0.2-0.4,0.3c-0.2,0.2-0.2,0.5-0.2,0.6c0,0.3,0.2,0.7,0.4,0.9c0.1,0.2,0.4,0.5,0.8,0.7s0.9,0.5,1.4,0.7
	C90.1,24.1,91,24,90.6,23.9z M92,23.7c0.6-0.8,1-1.7,1.2-2.6c0.1-0.4,0.2-0.8,0.2-1.2c0-0.3,0-0.7-0.1-1c0-0.2-0.1-0.4-0.2-0.6
	c-0.1-0.2-0.4-0.5-0.7-0.5c-0.2,0-0.4,0-0.6,0.1c-0.2,0.1-0.3,0.3-0.4,0.4c-0.2,0.4-0.4,0.7-0.4,1.1c-0.2,0.9-0.2,1.9,0.1,2.8
	c0.2,0.4,0-0.5,0.2-1.6c0.1-0.6,0.3-1.1,0.6-1.6c0.1-0.2,0.2-0.4,0.3-0.4c0.1-0.1,0.1,0,0.2,0c0,0,0.1,0,0.1,0.1
	c0.1,0.1,0.1,0.2,0.2,0.4c0.2,0.3,0.1,1.7-0.2,2.9C92.2,23.1,91.7,24,92,23.7L92,23.7z"/>
</svg>
