<svg xmlns="http://www.w3.org/2000/svg" width="101" height="85" viewBox="0 0 101 85" fill="none"><path d="M59.241 51.03c0-.07.07-.105.21-.105.104 0 .19.018.26.053.105.035.157.087.157.157a49.343 49.343 0 0 0-.47 6.94c0 .28-.07.49-.21.63-.104.105-.313.158-.626.158H36.665c-.07 0-.105-.105-.105-.316 0-.21.035-.315.105-.315 1.324 0 2.282-.088 2.874-.263.627-.175 1.045-.508 1.255-.999.243-.525.365-1.314.365-2.365V30.267c0-1.051-.122-1.822-.365-2.313-.21-.49-.628-.823-1.255-.999-.592-.21-1.55-.315-2.874-.315-.07 0-.105-.105-.105-.316 0-.21.035-.315.105-.315h21.008c.314 0 .47.158.47.473l.105 6.466c0 .105-.087.175-.261.21-.174 0-.279-.053-.314-.158-.104-1.857-.662-3.294-1.672-4.31-1.01-1.051-2.352-1.577-4.024-1.577H48.79c-1.22 0-2.125.105-2.717.315-.558.176-.958.508-1.202 1-.21.455-.314 1.155-.314 2.102V41.2h6.376c1.672 0 2.857-.28 3.553-.84.732-.561 1.098-1.507 1.098-2.839 0-.07.105-.105.314-.105.209 0 .313.035.313.105l-.052 4.258c0 1.016.017 1.787.052 2.313l.052 2.523c0 .07-.104.105-.313.105-.21 0-.314-.035-.314-.105 0-1.542-.383-2.646-1.15-3.312-.731-.666-1.968-.999-3.71-.999h-6.219v12.09c0 .982.105 1.7.314 2.156.209.455.592.77 1.15.946.557.175 1.428.263 2.612.263h4.181c1.672 0 3.066-.596 4.181-1.788 1.115-1.191 1.864-2.838 2.247-4.94ZM50.835 84.517c16.548 0 31.015-8.655 38.622-21.446l.387.231C82.16 76.242 67.542 85 50.815 85c-15.994 0-30.06-8.008-37.98-20.018l.381-.302c7.83 11.903 21.762 19.837 37.62 19.837ZM50.815 0C62.601 0 73.34 4.348 81.343 11.441l-.307.328C73.112 4.76 62.483.463 50.816.463c-19.174 0-35.54 11.619-41.69 27.828l-.442-.172C14.91 11.741 31.448 0 50.815 0ZM8.827 58.263c-1.008.322-2.076.302-3.043.06a6.108 6.108 0 0 1-2.458-1.288c-1.33-1.146-1.975-2.554-2.257-3.4-.181-.543-.363-1.327-.302-2.172.02-.222.06-.503.16-.664.081-.161.323-.262.646-.262.644-.04 1.41.302 2.115.845 1.431 1.127 3.003 2.555 4.494 4.064.685.724-.585-1.046-2.459-2.957a25.205 25.205 0 0 0-1.49-1.429c-.525-.462-1.129-.885-1.794-1.106-.343-.1-.685-.161-1.007-.141-.323.02-.686.1-.947.362a1.384 1.384 0 0 0-.383.745c-.04.2-.06.362-.08.502-.061.564 0 1.429.301 2.314v.02a8.327 8.327 0 0 0 1.37 2.495c.786 1.006 2.036 1.931 3.366 2.293 1.31.383 2.579.202 3.284-.04.363-.12.584-.241.665-.302.1-.02.04 0-.181.06ZM10.277 56.855a39.36 39.36 0 0 0 3.204-6.78c.786-2.093 1.149-4.185.322-5.493a1.37 1.37 0 0 0-.644-.503c-.283-.12-.625-.12-.927-.04-.605.181-1.068.563-1.451 1.046a9.002 9.002 0 0 0-1.169 2.093c-.342.885-.584 1.93-.705 3.058-.12 1.126-.12 2.353-.04 3.6.04.624.08 1.268.181 1.892.1.623.262 1.267.605 1.77.16.242.221.262.16.161-.06-.1-.2-.362-.322-.764-.262-.805-.241-2.274-.221-3.883.04-1.59.221-3.32.665-4.708.221-.704.483-1.308.765-1.77.283-.463.544-.845.706-1.046.18-.202.443-.463.785-.624.343-.161.706-.181.968.12v.02c.302.282.564 1.55.282 2.978a18.424 18.424 0 0 1-.625 2.274 39.66 39.66 0 0 1-.806 2.333c-1.128 2.958-2.378 5.291-1.733 4.266ZM6.69 50.215c-.745-.261-1.309-.825-1.772-1.408-.464-.583-.827-1.227-1.19-1.81-.342-.584-.664-1.127-.886-1.61A7.199 7.199 0 0 1 2.4 44.16c-.1-.423-.182-1.006-.1-1.61.02-.08.04-.16.06-.261.02-.06.04-.121.04-.181 0-.02.02-.04.06-.04 0 0 .08.02.202.1.463.282.947.664 1.43 1.147.968.945 1.874 2.293 2.761 3.601.201.302.141.1-.1-.422a19.9 19.9 0 0 0-1.19-2.173c-.544-.865-1.249-1.75-2.015-2.354-.181-.161-.382-.282-.564-.423-.06-.04-.12-.06-.181-.1a1.01 1.01 0 0 0-.262-.1.677.677 0 0 0-.524.1.914.914 0 0 0-.302.382c-.04.12-.06.181-.08.262-.041.14-.061.281-.081.382-.081.422-.081 1.086.1 1.77v.02c.08.383.343 1.167.847 1.972.241.402.523.825.826 1.247.302.423.604.845.927 1.227.644.785 1.43 1.308 1.974 1.47.262.08.464.1.544.1.121.02.101 0-.08-.06ZM7.537 48.606a152.852 152.852 0 0 0 3.184-5.372c.463-.825.887-1.589 1.169-2.313a9.746 9.746 0 0 0 .584-1.891c.06-.322.1-.725.12-1.147 0-.222.021-.523-.2-.845-.242-.342-.686-.402-1.008-.322-.383.1-.645.402-.846.664a11.76 11.76 0 0 0-.605.905c-.403.664-.826 1.449-1.148 2.354-.686 1.79-1.028 4.004-.766 6.136.06.503.08.201.1-.543.04-.744.142-1.951.484-3.219a14.141 14.141 0 0 1 1.511-3.661c.625-1.027 1.33-1.972 1.512-1.892.06-.02.12 0 .14.02.02.02.061.06.081.202.02.301 0 .744-.06 1.166v.02c-.08.463-.302 1.45-.826 2.596-.504 1.127-1.21 2.434-1.794 3.661-1.209 2.354-2.156 4.346-1.632 3.48ZM94.746 53.495c.483-.181.886-.503 1.249-.845.362-.342.685-.724 1.007-1.087.645-.724 1.29-1.448 1.874-2.213a13.51 13.51 0 0 0 1.491-2.394c.403-.845.685-1.75.625-2.675-.02-.222-.02-.483-.181-.765a.737.737 0 0 0-.424-.342c-.181-.06-.342-.04-.463-.04a4.3 4.3 0 0 0-1.25.382c-.765.382-1.33.925-1.773 1.489-.886 1.126-1.269 2.313-1.51 3.199-.303 1.126-.484 2.695-.766 4.305-.04.221-.081.463-.162.624-.04.08-.08.14-.1.14-.02 0-.02.02-.081-.02-.12-.08-.343-.342-.544-.583a25.27 25.27 0 0 1-.605-.765c-.805-1.066-1.611-2.414-1.994-4.023a8.153 8.153 0 0 1-.182-2.535c.06-.443.141-.885.303-1.288.08-.201.201-.382.382-.503.182-.1.403-.1.585 0 .201.1.383.242.544.423.161.16.322.342.483.523.303.362.585.764.806 1.187a8.22 8.22 0 0 1 .968 2.736c.06.463.08.543.1.342 0-.201-.02-.684-.16-1.388a8.184 8.184 0 0 0-1.008-2.475 7.047 7.047 0 0 0-1.048-1.328c-.222-.2-.504-.462-.947-.503-.222-.02-.464.06-.645.181s-.282.282-.383.443c-.181.322-.262.644-.342.946-.081.322-.141.643-.162.965-.06.664-.04 1.328.06 1.972.202 1.288.706 2.495 1.29 3.5a20.296 20.296 0 0 0 1.814 2.535c.08.101.201.202.343.282.14.08.382.14.564.08a.774.774 0 0 0 .443-.281c.1-.12.161-.221.201-.322.162-.422.162-.664.222-.905.181-.946.343-2.415.705-3.944v-.04c.101-.422.282-1.086.625-1.83.343-.745.887-1.61 1.753-2.254a3.499 3.499 0 0 1 1.471-.664c.141-.04.242-.02.282 0 .04.02.101.1.141.222.061.22.081.543.061.845-.061 1.187-.645 2.333-1.25 3.36-.624 1.025-1.33 1.93-1.954 2.735-.645.785-1.169 1.51-1.693 1.952a3.093 3.093 0 0 1-1.148.684c-.101.04-.121.04-.06.04.08 0 .22 0 .443-.08ZM95.974 40.438a35.897 35.897 0 0 0 2.821-5.07c.383-.865.766-1.69 1.008-2.615.12-.463.181-.926.14-1.409a2.757 2.757 0 0 0-.16-.704c-.04-.12-.101-.241-.182-.362a.748.748 0 0 0-.423-.302c-.161-.04-.302-.04-.423-.04s-.262.02-.383.06c-.242.06-.463.161-.665.302a3.173 3.173 0 0 0-.907.966c-.423.724-.604 1.469-.765 2.133a14.128 14.128 0 0 0-.323 3.44c.02.563.08 1.247.121 1.951 0 .181.02.362.02.543 0 .181.02.403 0 .523-.02.121-.02.08-.06.101-.06.02-.222-.02-.363-.1-.725-.423-1.572-1.188-2.277-2.294-.705-1.107-1.249-2.555-1.612-4.164-.1-.403-.181-.825-.242-1.248-.06-.422-.1-.845 0-1.227.04-.1.04-.14.101-.201.06-.04.141-.06.202-.02.14.04.322.22.463.382.323.322.625.664.927 1.026a18.636 18.636 0 0 1 2.922 4.889c.161.422.221.503.161.322-.04-.181-.181-.644-.423-1.288-.484-1.288-1.511-3.3-3.144-5.13-.1-.12-.201-.222-.322-.342-.06-.06-.141-.12-.222-.181a.956.956 0 0 0-.382-.161c-.282-.04-.565.12-.706.382-.08.14-.08.201-.12.302-.02.08-.04.18-.061.261-.1.725.06 1.348.161 1.972.222 1.227.544 2.454 1.008 3.52.463 1.067 1.047 1.992 1.672 2.656.302.342.605.604.887.825.302.221.503.382.785.503.142.06.303.12.504.12.202.02.524-.1.685-.341.162-.242.162-.483.162-.644 0-.181 0-.342-.02-.503-.02-.704-.101-1.449-.162-2.233v-.04c-.02-.443-.04-1.107.04-1.932.081-.825.242-1.85.605-2.857.181-.503.463-.965.887-1.287.201-.161.443-.282.705-.302.12-.02.262-.02.322 0s.121.1.182.221c.241.503.262 1.107.14 1.69-.1.584-.322 1.147-.523 1.71a41.406 41.406 0 0 1-2.438 5.372c-.565 1.106-.847 1.57-.323.825ZM90.595 23.92c-.786-.2-1.471-.563-2.015-.925a6.624 6.624 0 0 1-1.129-1.046c-.12-.14-.282-.382-.302-.563-.02-.08.02-.201.121-.262.121-.08.444-.04.726.06.604.262 1.37.624 2.136.906.362.14-.303-.362-1.129-.946-.222-.14-.403-.281-.665-.442-.262-.141-.524-.262-.846-.302-.161-.02-.343 0-.504.06a.728.728 0 0 0-.403.322c-.181.242-.201.503-.181.644.02.302.201.664.443.946.121.16.423.462.826.744.403.282.927.543 1.43.704 1.029.322 1.875.181 1.492.1ZM92.005 23.66c.625-.785 1.028-1.731 1.23-2.576.1-.422.16-.825.2-1.167.04-.342 0-.724-.06-.966-.04-.16-.1-.362-.242-.563-.12-.201-.362-.463-.725-.483a.903.903 0 0 0-.584.141c-.182.12-.323.282-.424.443a3.89 3.89 0 0 0-.443 1.146 5.024 5.024 0 0 0 .08 2.777c.162.422-.02-.543.202-1.65a5.5 5.5 0 0 1 .564-1.59c.121-.22.242-.381.343-.442.08-.06.12-.04.161-.04.02 0 .08.02.141.1.06.081.141.222.182.363.16.301.1 1.73-.182 2.877-.262 1.106-.725 1.991-.443 1.63Z" fill="#353535"></path></svg>