<svg xmlns="http://www.w3.org/2000/svg" width="44" height="44" viewBox="0 0 44 44" fill="none"><path d="M42.71 0H17.876a1.29 1.29 0 0 0-1.29 1.29v3.608H44V1.29A1.29 1.29 0 0 0 42.71 0ZM17.114 9.882A6.833 6.833 0 0 0 22 11.945c3.648 0 6.733 2.457 7.687 5.803a3.874 3.874 0 0 1 2.368 3.564v2.082a3.87 3.87 0 0 1 2.062 3.419v6.273h5.878l3.826-25.61h-27.06l.353 2.406ZM34.117 40.133A6.41 6.41 0 0 1 32.825 44H38.5a1.29 1.29 0 0 0 1.29-1.29v-7.046h-5.673v4.469ZM12.375 32.914h-.773v.773a2.15 2.15 0 0 0 2.148 2.149h.773v-.773a2.15 2.15 0 0 0-2.148-2.149ZM17.102 35.063v.773h.773a2.15 2.15 0 0 0 2.148-2.148v-.774h-.773a2.15 2.15 0 0 0-2.148 2.148Z" fill="currentColor"></path><path d="M30.25 25.523H1.29A1.29 1.29 0 0 0 0 26.813v13.32A3.872 3.872 0 0 0 3.867 44h23.805a3.872 3.872 0 0 0 3.867-3.867v-13.32a1.29 1.29 0 0 0-1.289-1.29Zm-7.648 8.165a4.732 4.732 0 0 1-4.727 4.726H13.75a4.732 4.732 0 0 1-4.727-4.727v-2.062c0-.712.578-1.29 1.29-1.29h2.062c1.354 0 2.575.573 3.438 1.488a4.712 4.712 0 0 1 3.437-1.487h2.063c.711 0 1.289.577 1.289 1.289v2.063ZM29.477 21.313a1.29 1.29 0 0 0-1.29-1.29H3.438a1.29 1.29 0 0 0-1.289 1.29v1.632h27.329v-1.633ZM22 14.524a9.416 9.416 0 0 1-7.648-3.936l-.24-.337a1.29 1.29 0 0 0-2.099 0L8.93 14.568a5.424 5.424 0 0 0-4.11 2.877h21.986A5.42 5.42 0 0 0 22 14.524Z" fill="currentColor"></path></svg>