<svg xmlns="http://www.w3.org/2000/svg" width="44" height="44" viewBox="0 0 44 44" fill="none"><g fill="currentColor"><path d="m34.761 20.39-13.215 9.575c6.58 3.633 14.635-2.023 13.215-9.576ZM32.353 15.767l-13.694 9.922v1.756c.23.31.482.605.75.884l14.463-10.48a9.026 9.026 0 0 0-1.52-2.082ZM16.921 21.1v.303c.541.359.987.85 1.292 1.426l11.995-8.691c-5.62-3.074-12.61.586-13.287 6.963ZM13.293 14.274V3.853c0-.533-.327-1.01-.824-1.202L5.852.088A1.29 1.29 0 0 0 4.098 1.29v12.984c.214-.013 9.012-.01 9.195 0ZM14.342 18.133a1.29 1.29 0 0 0-1.289-1.289H4.337a1.29 1.29 0 0 0-1.29 1.29v2.628h11.296v-2.629ZM14.792 23.34H2.638a1.29 1.29 0 0 0-1.29 1.29v18.08c0 .713.578 1.29 1.29 1.29h12.154a1.29 1.29 0 0 0 1.289-1.29V24.63a1.29 1.29 0 0 0-1.29-1.29Z"></path><path d="M25.894 10.458c6.397 0 11.601 5.205 11.601 11.602 0 6.002-4.583 10.955-10.433 11.542h10.97a16.696 16.696 0 0 0 4.62-11.542c0-9.24-7.518-16.758-16.758-16.758A16.675 16.675 0 0 0 15.87 8.637v6.851c.092.098.18.201.261.309 2.066-3.21 5.67-5.339 9.762-5.339ZM18.659 33.602h6.081a11.537 11.537 0 0 1-6.081-2.48v2.48ZM18.659 42.71c0 .453-.078.887-.222 1.29h17.77a6.453 6.453 0 0 0 6.445-6.445V36.18H18.659v6.53Z"></path></g></svg>