<svg xmlns="http://www.w3.org/2000/svg" width="44" height="44" viewBox="0 0 44 44" fill="none"><g fill="currentColor"><path d="M32.398 27.707a3.824 3.824 0 0 1-1.014-.538L22 20.218l-9.385 6.952c-.31.229-.652.41-1.013.536a3.863 3.863 0 0 1-2.579.003v3.315C9.023 38.179 14.845 44 22 44s12.977-5.821 12.977-12.976v-3.315c-.848.3-1.759.288-2.579-.002Zm-8.56 1.695a4.21 4.21 0 0 1 5.949 0 1.29 1.29 0 0 1-1.824 1.823 1.63 1.63 0 0 0-2.301 0 1.29 1.29 0 0 1-1.824-1.823Zm-.49 7.4a1.29 1.29 0 0 1 1.43 2.146 4.992 4.992 0 0 1-5.555 0 1.289 1.289 0 1 1 1.43-2.145 2.423 2.423 0 0 0 2.695 0Zm-9.135-7.4a4.21 4.21 0 0 1 5.949 0 1.29 1.29 0 0 1-1.824 1.823 1.63 1.63 0 0 0-2.301 0 1.29 1.29 0 0 1-1.824-1.823ZM36.452 12.163l-3.779-3.66A9.783 9.783 0 0 1 28.8 15.18l-4.633 3.432 8.754 6.485a1.29 1.29 0 0 0 1.308.135c5.182-2.393 6.244-9.177 2.224-13.07ZM11.08 25.098l16.185-11.99a7.19 7.19 0 0 0 2.899-5.753V7.16A7.17 7.17 0 0 0 23.003 0c-1.87 0-3.64.717-4.983 2.018L7.548 12.163c-4.052 3.926-2.897 10.706 2.224 13.07.442.202.94.138 1.308-.135ZM4.704 24.378c-2.13 2.416-1.272 6.242 1.741 7.49v-5.696a10.577 10.577 0 0 1-1.74-1.794ZM39.307 24.393a10.478 10.478 0 0 1-1.752 1.792v5.683c3.01-1.246 3.868-5.063 1.752-7.475Z"></path></g></svg>