<svg xmlns="http://www.w3.org/2000/svg" width="20" height="14" viewBox="0 0 20 14" fill="none"><path d="M2.87 0A2.873 2.873 0 0 0 0 2.87a2.873 2.873 0 0 0 2.87 2.87 2.873 2.873 0 0 0 2.87-2.87A2.873 2.873 0 0 0 2.87 0Zm0 4.47c-.882 0-1.6-.718-1.6-1.6 0-.883.718-1.6 1.6-1.6.882 0 1.6.717 1.6 1.6 0 .882-.718 1.6-1.6 1.6ZM10 0a2.873 2.873 0 0 0-2.87 2.87A2.873 2.873 0 0 0 10 5.74a2.873 2.873 0 0 0 2.87-2.87A2.873 2.873 0 0 0 10 0Zm0 4.47c-.883 0-1.6-.718-1.6-1.6 0-.883.717-1.6 1.6-1.6.882 0 1.6.717 1.6 1.6 0 .882-.718 1.6-1.6 1.6ZM17.13 0a2.873 2.873 0 0 0-2.87 2.87 2.873 2.873 0 0 0 2.87 2.87A2.873 2.873 0 0 0 20 2.87 2.873 2.873 0 0 0 17.13 0Zm0 4.47c-.883 0-1.6-.718-1.6-1.6 0-.883.717-1.6 1.6-1.6.882 0 1.6.717 1.6 1.6 0 .882-.718 1.6-1.6 1.6ZM2.87 7.87A2.873 2.873 0 0 0 0 10.74a2.873 2.873 0 0 0 2.87 2.87 2.873 2.873 0 0 0 2.87-2.87 2.873 2.873 0 0 0-2.87-2.87Zm0 4.47c-.882 0-1.6-.718-1.6-1.6 0-.883.718-1.6 1.6-1.6.882 0 1.6.717 1.6 1.6 0 .882-.718 1.6-1.6 1.6ZM10 7.87a2.873 2.873 0 0 0-2.87 2.87A2.873 2.873 0 0 0 10 13.61a2.873 2.873 0 0 0 2.87-2.87A2.873 2.873 0 0 0 10 7.87Zm0 4.47c-.883 0-1.6-.718-1.6-1.6 0-.883.717-1.6 1.6-1.6.882 0 1.6.717 1.6 1.6 0 .882-.718 1.6-1.6 1.6ZM17.13 7.87a2.873 2.873 0 0 0-2.87 2.87 2.873 2.873 0 0 0 2.87 2.87A2.873 2.873 0 0 0 20 10.74a2.873 2.873 0 0 0-2.87-2.87Zm0 4.47c-.883 0-1.6-.718-1.6-1.6 0-.883.717-1.6 1.6-1.6.882 0 1.6.717 1.6 1.6 0 .882-.718 1.6-1.6 1.6Z" fill="currentColor"></path></svg>