<svg xmlns="http://www.w3.org/2000/svg" width="24" height="20" viewBox="0 0 24 20" fill="none"><path d="M22.755 3.342c-1.38-1.86-3.572-3.06-5.583-3.06A6.644 6.644 0 0 0 12 2.747 6.641 6.641 0 0 0 6.828.28c-2.011 0-4.202 1.201-5.583 3.06C.105 4.877-.27 6.566.193 8.1c1.065 3.527 11.11 11.097 11.538 11.418l.269.202.269-.202c.427-.32 10.473-7.89 11.537-11.418.463-1.533.09-3.222-1.05-4.757Zm.194 4.498c-.89 2.949-9.326 9.514-10.95 10.756C10.377 17.353 1.942 10.789 1.052 7.84c-.378-1.254-.054-2.662.913-3.964C3.163 2.26 5.118 1.177 6.828 1.177a5.75 5.75 0 0 1 4.799 2.575l.373.56.373-.56a5.752 5.752 0 0 1 4.799-2.575c1.71 0 3.665 1.085 4.864 2.699.967 1.302 1.291 2.71.913 3.964Z" fill="currentColor"></path><path d="M13.917 6.08c-.725 0-1.41.283-1.917.778a2.743 2.743 0 0 0-1.917-.778c-.832 0-1.733.49-2.296 1.248-.477.642-.631 1.357-.433 2.013.405 1.344 3.717 3.882 4.377 4.377l.27.202.268-.202c.66-.495 3.972-3.034 4.378-4.377.198-.656.044-1.37-.433-2.013-.564-.758-1.465-1.248-2.297-1.248Zm1.872 3.002c-.233.773-2.343 2.602-3.789 3.715-1.446-1.113-3.555-2.94-3.789-3.714-.154-.51.119-.984.295-1.221.394-.53 1.028-.886 1.577-.886.622 0 1.199.31 1.544.828l.373.561.373-.56a1.85 1.85 0 0 1 1.544-.83c.55 0 1.183.357 1.577.887.176.237.449.711.295 1.22Z" fill="currentColor"></path></svg>